# 3ds Max Wavefront OBJ Exporter v0.97b - (c)2007 guruware
# File Created: 25.07.2012 12:28:29

#
# object MESH_tree_10
#

v  0.0001 44.3951 -0.0001
v  -4.0459 41.9158 0.8796
v  -0.4137 41.9158 4.1196
v  3.7903 41.9158 1.6663
v  2.7562 41.9158 -3.0899
v  -2.0869 41.9158 -3.5762
v  -12.2864 27.2054 3.1208
v  -0.8286 27.2054 12.6493
v  -6.7649 27.2054 -10.7206
v  -0.7213 19.0667 15.1083
v  -14.5917 19.0667 3.9826
v  14.1459 19.0667 5.3546
v  9.4639 19.0667 -11.7990
v  -8.2969 19.0667 -12.6469
v  -0.1377 12.8730 2.8842
v  -2.7856 12.8730 0.7602
v  2.7005 12.8730 1.0221
v  1.8066 12.8730 -2.2526
v  -1.5840 12.8730 -2.4144
v  -0.1832 -0.0000 3.8359
v  -3.7049 -0.0000 1.0111
v  3.5917 -0.0000 1.3594
v  2.4028 -0.0000 -2.9958
v  -2.1067 -0.0000 -3.2112
v  -7.6419 37.3005 1.8350
v  -4.1068 37.3005 -6.7008
v  -0.6162 37.3005 7.8348
v  7.2610 37.3005 3.0070
v  11.7743 27.2054 4.6968
v  5.1037 37.3005 -5.9765
v  8.1054 27.2054 -9.7467
v  -0.1086 5.2044 2.2748
v  -2.1972 5.2044 0.5996
v  2.1300 5.2044 0.8062
v  1.4250 5.2044 -1.7767
v  -1.2494 5.2044 -1.9044
v  -12.5415 15.9699 3.4230
v  -0.6200 15.9699 12.9854
v  12.1583 15.9699 4.6022
v  8.1341 15.9699 -10.1412
v  -7.1312 15.9699 -10.8700
# 41 vertices

vn 0.0000 1.0000 0.0000
vn -0.6790 0.7197 0.1446
vn -0.0724 0.7197 0.6905
vn 0.0000 1.0000 0.0000
vn -0.0724 0.7197 0.6905
vn 0.6343 0.7197 0.2822
vn 0.0000 1.0000 0.0000
vn 0.6343 0.7197 0.2822
vn 0.4644 0.7197 -0.5161
vn 0.0000 1.0000 0.0000
vn 0.4644 0.7197 -0.5161
vn -0.3473 0.7197 -0.6011
vn 0.0000 1.0000 0.0000
vn -0.3473 0.7197 -0.6011
vn -0.6790 0.7197 0.1446
vn -0.0680 0.5170 0.8533
vn -0.0724 0.7197 0.6905
vn -0.6790 0.7197 0.1446
vn -0.6790 0.7197 0.1446
vn -0.8325 0.5170 0.1990
vn -0.0680 0.5170 0.8533
vn 0.7905 0.5170 0.3283
vn 0.6343 0.7197 0.2822
vn -0.0724 0.7197 0.6905
vn -0.0724 0.7197 0.6905
vn -0.0680 0.5170 0.8533
vn 0.7905 0.5170 0.3283
vn 0.5565 0.5170 -0.6503
vn 0.4644 0.7197 -0.5161
vn 0.6343 0.7197 0.2822
vn 0.6343 0.7197 0.2822
vn 0.7905 0.5170 0.3283
vn 0.5565 0.5170 -0.6503
vn -0.4465 0.5170 -0.7303
vn -0.3473 0.7197 -0.6011
vn 0.4644 0.7197 -0.5161
vn 0.4644 0.7197 -0.5161
vn 0.5565 0.5170 -0.6503
vn -0.4465 0.5170 -0.7303
vn -0.8325 0.5170 0.1990
vn -0.6790 0.7197 0.1446
vn -0.3473 0.7197 -0.6011
vn -0.3473 0.7197 -0.6011
vn -0.4465 0.5170 -0.7303
vn -0.8325 0.5170 0.1990
vn -0.9078 0.3526 0.2272
vn -0.4966 0.3526 -0.7931
vn -0.5450 -0.1363 -0.8273
vn -0.5450 -0.1363 -0.8273
vn -0.9552 -0.1363 0.2627
vn -0.9078 0.3526 0.2272
vn -0.0644 0.3526 0.9336
vn -0.9078 0.3526 0.2272
vn -0.9552 -0.1363 0.2627
vn -0.9552 -0.1363 0.2627
vn -0.0454 -0.1363 0.9896
vn -0.0644 0.3526 0.9336
vn 0.8680 0.3526 0.3497
vn -0.0644 0.3526 0.9336
vn -0.0454 -0.1363 0.9896
vn -0.0454 -0.1363 0.9896
vn 0.9272 -0.1363 0.3490
vn 0.8680 0.3526 0.3497
vn 0.6008 0.3526 -0.7174
vn 0.8680 0.3526 0.3497
vn 0.9272 -0.1363 0.3490
vn 0.9272 -0.1363 0.3490
vn 0.6184 -0.1363 -0.7740
vn 0.6008 0.3526 -0.7174
vn -0.4966 0.3526 -0.7931
vn 0.6008 0.3526 -0.7174
vn 0.6184 -0.1363 -0.7740
vn 0.6184 -0.1363 -0.7740
vn -0.5450 -0.1363 -0.8273
vn -0.4966 0.3526 -0.7931
vn -0.0316 -0.7482 0.6627
vn -0.6401 -0.7482 0.1747
vn -0.6337 -0.7540 0.1730
vn -0.6337 -0.7540 0.1730
vn -0.0313 -0.7540 0.6561
vn -0.0316 -0.7482 0.6627
vn 0.6205 -0.7482 0.2349
vn -0.0316 -0.7482 0.6627
vn -0.0313 -0.7540 0.6561
vn -0.0313 -0.7540 0.6561
vn 0.6143 -0.7540 0.2325
vn 0.6205 -0.7482 0.2349
vn 0.4151 -0.7482 -0.5176
vn 0.6205 -0.7482 0.2349
vn 0.6143 -0.7540 0.2325
vn 0.6143 -0.7540 0.2325
vn 0.4110 -0.7540 -0.5124
vn 0.4151 -0.7482 -0.5176
vn -0.3639 -0.7482 -0.5548
vn 0.4151 -0.7482 -0.5176
vn 0.4110 -0.7540 -0.5124
vn 0.4110 -0.7540 -0.5124
vn -0.3603 -0.7540 -0.5492
vn -0.3639 -0.7482 -0.5548
vn -0.6401 -0.7482 0.1747
vn -0.3639 -0.7482 -0.5548
vn -0.3603 -0.7540 -0.5492
vn -0.3603 -0.7540 -0.5492
vn -0.6337 -0.7540 0.1730
vn -0.6401 -0.7482 0.1747
vn -0.6337 -0.7540 0.1730
vn -0.9584 0.1141 0.2616
vn -0.0474 0.1141 0.9923
vn -0.0474 0.1141 0.9923
vn -0.0313 -0.7540 0.6561
vn -0.6337 -0.7540 0.1730
vn -0.0313 -0.7540 0.6561
vn -0.0474 0.1141 0.9923
vn 0.9291 0.1141 0.3517
vn 0.9291 0.1141 0.3517
vn 0.6143 -0.7540 0.2325
vn -0.0313 -0.7540 0.6561
vn 0.6143 -0.7540 0.2325
vn 0.9291 0.1141 0.3517
vn 0.6216 0.1141 -0.7750
vn 0.6216 0.1141 -0.7750
vn 0.4110 -0.7540 -0.5124
vn 0.6143 -0.7540 0.2325
vn 0.4110 -0.7540 -0.5124
vn 0.6216 0.1141 -0.7750
vn -0.5450 0.1141 -0.8307
vn -0.5450 0.1141 -0.8307
vn -0.3603 -0.7540 -0.5492
vn 0.4110 -0.7540 -0.5124
vn -0.3603 -0.7540 -0.5492
vn -0.5450 0.1141 -0.8307
vn -0.9584 0.1141 0.2616
vn -0.9584 0.1141 0.2616
vn -0.6337 -0.7540 0.1730
vn -0.3603 -0.7540 -0.5492
vn -0.8325 0.5170 0.1990
vn -0.4465 0.5170 -0.7303
vn -0.4966 0.3526 -0.7931
vn -0.4966 0.3526 -0.7931
vn -0.9078 0.3526 0.2272
vn -0.8325 0.5170 0.1990
vn -0.0680 0.5170 0.8533
vn -0.8325 0.5170 0.1990
vn -0.9078 0.3526 0.2272
vn -0.9078 0.3526 0.2272
vn -0.0644 0.3526 0.9336
vn -0.0680 0.5170 0.8533
vn 0.7905 0.5170 0.3283
vn -0.0680 0.5170 0.8533
vn -0.0644 0.3526 0.9336
vn -0.0644 0.3526 0.9336
vn 0.8680 0.3526 0.3497
vn 0.7905 0.5170 0.3283
vn 0.5565 0.5170 -0.6503
vn 0.7905 0.5170 0.3283
vn 0.8680 0.3526 0.3497
vn 0.8680 0.3526 0.3497
vn 0.6008 0.3526 -0.7174
vn 0.5565 0.5170 -0.6503
vn -0.4465 0.5170 -0.7303
vn 0.5565 0.5170 -0.6503
vn 0.6008 0.3526 -0.7174
vn 0.6008 0.3526 -0.7174
vn -0.4966 0.3526 -0.7931
vn -0.4465 0.5170 -0.7303
vn -0.9239 0.2876 0.2522
vn -0.0457 0.2876 0.9567
vn -0.0474 0.1141 0.9923
vn -0.0474 0.1141 0.9923
vn -0.9584 0.1141 0.2616
vn -0.9239 0.2876 0.2522
vn -0.0457 0.2876 0.9567
vn 0.8957 0.2876 0.3390
vn 0.9291 0.1141 0.3517
vn 0.9291 0.1141 0.3517
vn -0.0474 0.1141 0.9923
vn -0.0457 0.2876 0.9567
vn 0.8957 0.2876 0.3390
vn 0.5993 0.2876 -0.7471
vn 0.6216 0.1141 -0.7750
vn 0.6216 0.1141 -0.7750
vn 0.9291 0.1141 0.3517
vn 0.8957 0.2876 0.3390
vn 0.5993 0.2876 -0.7471
vn -0.5254 0.2876 -0.8008
vn -0.5450 0.1141 -0.8307
vn -0.5450 0.1141 -0.8307
vn 0.6216 0.1141 -0.7750
vn 0.5993 0.2876 -0.7471
vn -0.5254 0.2876 -0.8008
vn -0.9239 0.2876 0.2522
vn -0.9584 0.1141 0.2616
vn -0.9584 0.1141 0.2616
vn -0.5450 0.1141 -0.8307
vn -0.5254 0.2876 -0.8008
vn -0.0454 -0.1363 0.9896
vn -0.9552 -0.1363 0.2627
vn -0.6401 -0.7482 0.1747
vn -0.6401 -0.7482 0.1747
vn -0.0316 -0.7482 0.6627
vn -0.0454 -0.1363 0.9896
vn 0.9272 -0.1363 0.3490
vn -0.0454 -0.1363 0.9896
vn -0.0316 -0.7482 0.6627
vn -0.0316 -0.7482 0.6627
vn 0.6205 -0.7482 0.2349
vn 0.9272 -0.1363 0.3490
vn 0.6184 -0.1363 -0.7740
vn 0.9272 -0.1363 0.3490
vn 0.6205 -0.7482 0.2349
vn 0.6205 -0.7482 0.2349
vn 0.4151 -0.7482 -0.5176
vn 0.6184 -0.1363 -0.7740
vn -0.5450 -0.1363 -0.8273
vn 0.6184 -0.1363 -0.7740
vn 0.4151 -0.7482 -0.5176
vn 0.4151 -0.7482 -0.5176
vn -0.3639 -0.7482 -0.5548
vn -0.5450 -0.1363 -0.8273
vn -0.9552 -0.1363 0.2627
vn -0.5450 -0.1363 -0.8273
vn -0.3639 -0.7482 -0.5548
vn -0.3639 -0.7482 -0.5548
vn -0.6401 -0.7482 0.1747
vn -0.9552 -0.1363 0.2627
# 225 vertex normals

vt 0.9000 0.9961 0.0000
vt 0.8008 0.8613 0.0000
vt 1.0000 0.8613 0.0000
vt 0.1003 0.9961 0.0000
vt 0.0000 0.8613 0.0000
vt 0.2997 0.9961 0.0000
vt 0.2012 0.8613 0.0000
vt 0.5002 0.9961 0.0000
vt 0.4004 0.8613 0.0000
vt 0.7001 0.9961 0.0000
vt 0.5996 0.8613 0.0000
vt 0.5996 0.7578 0.0000
vt 0.8008 0.7578 0.0000
vt 1.0000 0.7578 0.0000
vt 0.8000 0.5848 0.0000
vt 0.0000 0.7578 0.0000
vt 0.2012 0.7578 0.0000
vt 0.6001 0.5848 0.0000
vt 0.4004 0.7578 0.0000
vt 0.4002 0.5848 0.0000
vt 0.2003 0.5848 0.0000
vt 0.9999 0.5848 0.0000
vt 0.0004 0.5848 0.0000
vt 0.9258 0.5020 0.0000
vt 0.0742 0.5020 0.0000
vt 0.8750 0.5020 0.0000
vt 0.7246 0.5020 0.0000
vt 0.1250 0.5020 0.0000
vt 0.2754 0.5020 0.0000
vt 0.3262 0.5020 0.0000
vt 0.4746 0.5020 0.0000
vt 0.5254 0.5020 0.0000
vt 0.6738 0.5020 0.0000
vt 0.1465 0.4980 0.0000
vt 0.1094 0.4980 0.0000
vt 0.1836 0.4980 0.0000
vt 0.0352 0.4980 0.0000
vt 0.0020 0.4980 0.0000
vt 0.0742 0.4980 0.0000
vt 0.1094 0.3047 0.0000
vt 0.1484 0.3047 0.0000
vt 0.1836 0.3047 0.0000
vt 0.0020 0.3047 0.0000
vt 0.0371 0.3047 0.0000
vt 0.0742 0.3047 0.0000
vt 0.8008 0.7461 0.0000
vt 1.0000 0.7461 0.0000
vt 0.0000 0.7461 0.0000
vt 0.2012 0.7461 0.0000
vt 0.4004 0.7461 0.0000
vt 0.5996 0.7461 0.0000
vt 0.8008 0.7461 0.0000
vt 0.5996 0.7461 0.0000
vt 0.5996 0.5684 0.0000
vt 0.8008 0.5684 0.0000
vt 1.0000 0.7461 0.0000
vt 1.0000 0.5684 0.0000
vt 0.2012 0.7461 0.0000
vt 0.0000 0.7461 0.0000
vt 0.0000 0.5684 0.0000
vt 0.2012 0.5684 0.0000
vt 0.4004 0.7461 0.0000
vt 0.4004 0.5684 0.0000
vt 0.8008 0.5840 0.0000
vt 0.5996 0.5840 0.0000
vt 0.4004 0.5840 0.0000
vt 0.2012 0.5840 0.0000
vt 1.0000 0.5840 0.0000
vt 0.0000 0.5840 0.0000
vt 0.1475 0.4014 0.0000
vt 0.1094 0.4014 0.0000
vt 0.0020 0.4014 0.0000
vt 0.1836 0.4014 0.0000
vt 0.0361 0.4014 0.0000
vt 0.0742 0.4014 0.0000
vt 0.8375 0.5434 0.0000
vt 0.7623 0.5434 0.0000
vt 0.9629 0.5434 0.0000
vt 0.0373 0.5434 0.0000
vt 0.1626 0.5434 0.0000
vt 0.2378 0.5434 0.0000
vt 0.3632 0.5434 0.0000
vt 0.4374 0.5434 0.0000
vt 0.5628 0.5434 0.0000
vt 0.6370 0.5434 0.0000
# 85 texture coords

g MESH_tree_10
s 1
f 1/1/1 2/2/2 3/3/3 
f 1/4/4 3/5/5 4/7/6 
f 1/6/7 4/7/8 5/9/9 
f 1/8/10 5/9/11 6/11/12 
f 1/10/13 6/11/14 2/2/15 
f 27/47/16 3/3/17 2/2/18 
f 2/2/19 25/46/20 27/47/21 
f 28/49/22 4/7/23 3/5/24 
f 3/5/25 27/48/26 28/49/27 
f 30/50/28 5/9/29 4/7/30 
f 4/7/31 28/49/32 30/50/33 
f 26/51/34 6/11/35 5/9/36 
f 5/9/37 30/50/38 26/51/39 
f 25/46/40 2/2/41 6/11/42 
f 6/11/43 26/51/44 25/46/45 
f 7/13/46 9/12/47 14/65/48 
f 14/65/49 11/64/50 7/13/51 
f 8/14/52 7/13/53 11/64/54 
f 11/64/55 10/68/56 8/14/57 
f 29/17/58 8/16/59 10/69/60 
f 10/69/61 12/67/62 29/17/63 
f 31/19/64 29/17/65 12/67/66 
f 12/67/67 13/66/68 31/19/69 
f 9/12/70 31/19/71 13/66/72 
f 13/66/73 14/65/74 9/12/75 
f 38/78/76 37/76/77 16/26/78 
f 16/26/79 15/24/80 38/78/81 
f 39/80/82 38/79/83 15/25/84 
f 15/25/85 17/28/86 39/80/87 
f 40/82/88 39/81/89 17/29/90 
f 17/29/91 18/30/92 40/82/93 
f 41/84/94 40/83/95 18/31/96 
f 18/31/97 19/32/98 41/84/99 
f 37/77/100 41/85/101 19/33/102 
f 19/33/103 16/27/104 37/77/105 
f 16/35/106 33/71/107 32/70/108 
f 32/70/109 15/34/110 16/35/111 
f 15/34/112 32/70/113 34/73/114 
f 34/73/115 17/36/116 15/34/117 
f 17/38/118 34/72/119 35/74/120 
f 35/74/121 18/37/122 17/38/123 
f 18/37/124 35/74/125 36/75/126 
f 36/75/127 19/39/128 18/37/129 
f 19/39/130 36/75/131 33/71/132 
f 33/71/133 16/35/134 19/39/135 
f 25/52/136 26/53/137 9/54/138 
f 9/54/139 7/55/140 25/52/141 
f 27/56/142 25/52/143 7/55/144 
f 7/55/145 8/57/146 27/56/147 
f 28/58/148 27/59/149 8/60/150 
f 8/60/151 29/61/152 28/58/153 
f 30/62/154 28/58/155 29/61/156 
f 29/61/157 31/63/158 30/62/159 
f 26/53/160 30/62/161 31/63/162 
f 31/63/163 9/54/164 26/53/165 
f 21/40/166 20/41/167 32/70/168 
f 32/70/169 33/71/170 21/40/171 
f 20/41/172 22/42/173 34/73/174 
f 34/73/175 32/70/176 20/41/177 
f 22/43/178 23/44/179 35/74/180 
f 35/74/181 34/72/182 22/43/183 
f 23/44/184 24/45/185 36/75/186 
f 36/75/187 35/74/188 23/44/189 
f 24/45/190 21/40/191 33/71/192 
f 33/71/193 36/75/194 24/45/195 
f 10/22/196 11/15/197 37/76/198 
f 37/76/199 38/78/200 10/22/201 
f 12/21/202 10/23/203 38/79/204 
f 38/79/205 39/80/206 12/21/207 
f 13/20/208 12/21/209 39/81/210 
f 39/81/211 40/82/212 13/20/213 
f 14/18/214 13/20/215 40/83/216 
f 40/83/217 41/84/218 14/18/219 
f 11/15/220 14/18/221 41/85/222 
f 41/85/223 37/77/224 11/15/225 
# 75 faces

