# 3ds Max Wavefront OBJ Exporter v0.97b - (c)2007 guruware
# File Created: 08.08.2012 16:15:07

#
# object MESH_tree_3
#

v  0.0001 43.3974 -0.0001
v  -8.3384 40.8729 1.7521
v  -0.4621 40.8729 6.1181
v  9.4867 40.8729 4.1207
v  6.2575 40.8729 -6.7337
v  -5.9164 40.8729 -9.7321
v  -13.7881 27.8584 3.5022
v  -0.4726 27.8584 12.7100
v  -9.7893 27.8584 -16.0016
v  -1.0392 20.3115 10.5698
v  -11.9415 20.3115 3.2917
v  16.7989 20.3115 6.7502
v  9.5734 20.3115 -9.6594
v  -8.8541 20.3115 -14.1400
v  0.6756 14.8657 3.8756
v  -2.6230 14.8657 -0.0606
v  5.7190 14.8657 1.7148
v  4.3421 14.8657 -3.3521
v  -0.2559 14.8657 -3.8891
v  -0.1652 -0.0000 3.4594
v  -3.3413 -0.0000 0.9118
v  3.2392 -0.0000 1.2260
v  2.1670 -0.0000 -2.7019
v  -1.9000 -0.0000 -2.8960
v  -12.2401 36.5141 2.9392
v  -8.9806 36.5141 -13.9708
v  -0.6159 36.5141 10.4734
v  15.5816 36.5141 7.5901
v  18.0335 27.8584 8.4362
v  10.1907 36.5141 -10.1017
v  11.8939 27.8584 -11.4915
v  -0.3448 7.4329 1.8402
v  -2.3328 7.4329 0.2455
v  1.7862 7.4329 0.4421
v  1.1151 7.4329 -2.0165
v  -1.4306 7.4329 -2.1380
v  -5.1374 40.8729 5.6932
v  5.2247 40.8729 7.9677
v  10.5540 40.8729 -1.5028
v  0.6696 40.8729 -9.9619
v  -6.3421 40.8729 -2.4695
v  -9.7037 27.8584 11.9089
v  9.2934 27.8584 16.0213
v  2.1037 27.8584 -17.2423
v  -11.2233 27.8584 -5.1137
v  -7.5699 20.3115 9.0888
v  8.3619 20.3115 12.4057
v  16.6047 20.3115 -1.6217
v  1.3684 20.3115 -14.0514
v  -9.9292 20.3115 -3.5896
v  -10.5989 36.5141 -3.8798
v  -8.7997 36.5141 10.0676
v  8.1151 36.5141 13.8587
v  16.5326 36.5141 -2.4127
v  18.3187 27.8584 -3.1125
v  0.9861 36.5141 -13.7176
# 56 vertices

vn -0.0357 0.9987 0.0370
vn -0.2246 0.8611 0.4562
vn -0.1091 0.8409 0.5301
vn -0.0357 0.9987 0.0370
vn 0.0665 0.8817 0.4671
vn 0.3749 0.9053 0.1997
vn -0.0357 0.9987 0.0370
vn 0.4436 0.8876 -0.1236
vn 0.3035 0.8633 -0.4031
vn -0.0357 0.9987 0.0370
vn 0.1441 0.8243 -0.5475
vn -0.3566 0.8555 -0.3753
vn -0.0357 0.9987 0.0370
vn -0.5016 0.8558 -0.1266
vn -0.5487 0.8349 0.0424
vn -0.5487 0.8349 0.0424
vn -0.9038 0.4180 0.0913
vn -0.4872 0.4826 0.7278
vn -0.4872 0.4826 0.7278
vn -0.2246 0.8611 0.4562
vn -0.5487 0.8349 0.0424
vn -0.1091 0.8409 0.5301
vn -0.1828 0.4918 0.8513
vn 0.1366 0.5294 0.8373
vn 0.1366 0.5294 0.8373
vn 0.0665 0.8817 0.4671
vn -0.1091 0.8409 0.5301
vn 0.3749 0.9053 0.1997
vn 0.7358 0.5622 0.3775
vn 0.8223 0.5166 -0.2387
vn 0.8223 0.5166 -0.2387
vn 0.4436 0.8876 -0.1236
vn 0.3749 0.9053 0.1997
vn 0.3035 0.8633 -0.4031
vn 0.5294 0.5183 -0.6716
vn 0.1689 0.5357 -0.8274
vn 0.1689 0.5357 -0.8274
vn 0.1441 0.8243 -0.5475
vn 0.3035 0.8633 -0.4031
vn -0.3566 0.8555 -0.3753
vn -0.5964 0.4853 -0.6393
vn -0.8924 0.4121 -0.1841
vn -0.8924 0.4121 -0.1841
vn -0.5016 0.8558 -0.1266
vn -0.3566 0.8555 -0.3753
vn -0.9800 -0.0393 -0.1950
vn -0.7927 -0.5839 -0.1754
vn -0.8068 -0.5786 0.1199
vn -0.8068 -0.5786 0.1199
vn -0.9958 -0.0283 0.0876
vn -0.9800 -0.0393 -0.1950
vn -0.5554 -0.0553 0.8297
vn -0.4263 -0.6375 0.6417
vn -0.1672 -0.5756 0.8005
vn -0.1672 -0.5756 0.8005
vn -0.2127 -0.0056 0.9771
vn -0.5554 -0.0553 0.8297
vn 0.2010 -0.0549 0.9781
vn 0.1608 -0.6550 0.7383
vn 0.7296 -0.5973 0.3331
vn 0.7296 -0.5973 0.3331
vn 0.8993 0.0223 0.4367
vn 0.2010 -0.0549 0.9781
vn 0.9435 -0.0177 -0.3309
vn 0.7605 -0.5916 -0.2676
vn 0.5043 -0.6065 -0.6147
vn 0.5043 -0.6065 -0.6147
vn 0.6656 -0.0592 -0.7439
vn 0.9435 -0.0177 -0.3309
vn 0.2211 -0.0178 -0.9751
vn 0.1785 -0.6459 -0.7423
vn -0.5671 -0.5927 -0.5719
vn -0.5671 -0.5927 -0.5719
vn -0.6755 -0.0125 -0.7373
vn 0.2211 -0.0178 -0.9751
vn -0.1460 -0.6939 0.7051
vn -0.4263 -0.6375 0.6417
vn -0.7768 -0.6290 0.0318
vn 0.5091 -0.8259 0.2423
vn 0.1608 -0.6550 0.7383
vn -0.1460 -0.6939 0.7051
vn 0.4378 -0.7514 -0.4937
vn 0.7605 -0.5916 -0.2676
vn 0.5091 -0.8259 0.2423
vn -0.3042 -0.6947 -0.6518
vn 0.1785 -0.6459 -0.7423
vn 0.4378 -0.7514 -0.4937
vn -0.7768 -0.6290 0.0318
vn -0.7927 -0.5839 -0.1754
vn -0.3042 -0.6947 -0.6518
vn -0.1460 -0.6939 0.7051
vn -0.7768 -0.6290 0.0318
vn -0.9692 0.0375 0.2433
vn -0.9692 0.0375 0.2433
vn -0.1051 -0.0417 0.9936
vn -0.1460 -0.6939 0.7051
vn 0.5091 -0.8259 0.2423
vn -0.1460 -0.6939 0.7051
vn -0.1051 -0.0417 0.9936
vn -0.1051 -0.0417 0.9936
vn 0.9218 -0.1684 0.3492
vn 0.5091 -0.8259 0.2423
vn 0.4378 -0.7514 -0.4937
vn 0.5091 -0.8259 0.2423
vn 0.9218 -0.1684 0.3492
vn 0.9218 -0.1684 0.3492
vn 0.5791 -0.1308 -0.8047
vn 0.4378 -0.7514 -0.4937
vn -0.3042 -0.6947 -0.6518
vn 0.4378 -0.7514 -0.4937
vn 0.5791 -0.1308 -0.8047
vn 0.5791 -0.1308 -0.8047
vn -0.5760 -0.0148 -0.8173
vn -0.3042 -0.6947 -0.6518
vn -0.7768 -0.6290 0.0318
vn -0.3042 -0.6947 -0.6518
vn -0.5760 -0.0148 -0.8173
vn -0.5760 -0.0148 -0.8173
vn -0.9692 0.0375 0.2433
vn -0.7768 -0.6290 0.0318
vn -0.9038 0.4180 0.0913
vn -0.8924 0.4121 -0.1841
vn -0.9800 -0.0393 -0.1950
vn -0.9800 -0.0393 -0.1950
vn -0.9958 -0.0283 0.0876
vn -0.9038 0.4180 0.0913
vn -0.1828 0.4918 0.8513
vn -0.4872 0.4826 0.7278
vn -0.5554 -0.0553 0.8297
vn -0.5554 -0.0553 0.8297
vn -0.2127 -0.0056 0.9771
vn -0.1828 0.4918 0.8513
vn 0.7358 0.5622 0.3775
vn 0.1366 0.5294 0.8373
vn 0.2010 -0.0549 0.9781
vn 0.2010 -0.0549 0.9781
vn 0.8993 0.0223 0.4367
vn 0.7358 0.5622 0.3775
vn 0.5294 0.5183 -0.6716
vn 0.8223 0.5166 -0.2387
vn 0.9435 -0.0177 -0.3309
vn 0.9435 -0.0177 -0.3309
vn 0.6656 -0.0592 -0.7439
vn 0.5294 0.5183 -0.6716
vn -0.5964 0.4853 -0.6393
vn 0.1689 0.5357 -0.8274
vn 0.2211 -0.0178 -0.9751
vn 0.2211 -0.0178 -0.9751
vn -0.6755 -0.0125 -0.7373
vn -0.5964 0.4853 -0.6393
vn -0.9692 0.0375 0.2433
vn -0.9486 0.1535 0.2767
vn -0.0356 0.2119 0.9766
vn -0.0356 0.2119 0.9766
vn -0.1051 -0.0417 0.9936
vn -0.9692 0.0375 0.2433
vn -0.1051 -0.0417 0.9936
vn -0.0356 0.2119 0.9766
vn 0.9100 0.2153 0.3545
vn 0.9100 0.2153 0.3545
vn 0.9218 -0.1684 0.3492
vn -0.1051 -0.0417 0.9936
vn 0.9218 -0.1684 0.3492
vn 0.9100 0.2153 0.3545
vn 0.6314 0.1593 -0.7589
vn 0.6314 0.1593 -0.7589
vn 0.5791 -0.1308 -0.8047
vn 0.9218 -0.1684 0.3492
vn 0.5791 -0.1308 -0.8047
vn 0.6314 0.1593 -0.7589
vn -0.5437 0.1191 -0.8308
vn -0.5437 0.1191 -0.8308
vn -0.5760 -0.0148 -0.8173
vn 0.5791 -0.1308 -0.8047
vn -0.5760 -0.0148 -0.8173
vn -0.5437 0.1191 -0.8308
vn -0.9486 0.1535 0.2767
vn -0.9486 0.1535 0.2767
vn -0.9692 0.0375 0.2433
vn -0.5760 -0.0148 -0.8173
vn -0.4872 0.4826 0.7278
vn -0.1828 0.4918 0.8513
vn -0.1091 0.8409 0.5301
vn -0.1091 0.8409 0.5301
vn -0.2246 0.8611 0.4562
vn -0.4872 0.4826 0.7278
vn 0.1366 0.5294 0.8373
vn 0.7358 0.5622 0.3775
vn 0.3749 0.9053 0.1997
vn 0.3749 0.9053 0.1997
vn 0.0665 0.8817 0.4671
vn 0.1366 0.5294 0.8373
vn 0.8223 0.5166 -0.2387
vn 0.5294 0.5183 -0.6716
vn 0.3035 0.8633 -0.4031
vn 0.3035 0.8633 -0.4031
vn 0.4436 0.8876 -0.1236
vn 0.8223 0.5166 -0.2387
vn 0.1689 0.5357 -0.8274
vn -0.5964 0.4853 -0.6393
vn -0.3566 0.8555 -0.3753
vn -0.3566 0.8555 -0.3753
vn 0.1441 0.8243 -0.5475
vn 0.1689 0.5357 -0.8274
vn -0.8924 0.4121 -0.1841
vn -0.9038 0.4180 0.0913
vn -0.5487 0.8349 0.0424
vn -0.5487 0.8349 0.0424
vn -0.5016 0.8558 -0.1266
vn -0.8924 0.4121 -0.1841
vn -0.9800 -0.0393 -0.1950
vn -0.6755 -0.0125 -0.7373
vn -0.5671 -0.5927 -0.5719
vn -0.5671 -0.5927 -0.5719
vn -0.7927 -0.5839 -0.1754
vn -0.9800 -0.0393 -0.1950
vn -0.5554 -0.0553 0.8297
vn -0.9958 -0.0283 0.0876
vn -0.8068 -0.5786 0.1199
vn -0.8068 -0.5786 0.1199
vn -0.4263 -0.6375 0.6417
vn -0.5554 -0.0553 0.8297
vn 0.2010 -0.0549 0.9781
vn -0.2127 -0.0056 0.9771
vn -0.1672 -0.5756 0.8005
vn -0.1672 -0.5756 0.8005
vn 0.1608 -0.6550 0.7383
vn 0.2010 -0.0549 0.9781
vn 0.9435 -0.0177 -0.3309
vn 0.8993 0.0223 0.4367
vn 0.7296 -0.5973 0.3331
vn 0.7296 -0.5973 0.3331
vn 0.7605 -0.5916 -0.2676
vn 0.9435 -0.0177 -0.3309
vn 0.2211 -0.0178 -0.9751
vn 0.6656 -0.0592 -0.7439
vn 0.5043 -0.6065 -0.6147
vn 0.5043 -0.6065 -0.6147
vn 0.1785 -0.6459 -0.7423
vn 0.2211 -0.0178 -0.9751
vn -0.5964 0.4853 -0.6393
vn -0.6755 -0.0125 -0.7373
vn -0.9800 -0.0393 -0.1950
vn -0.9800 -0.0393 -0.1950
vn -0.8924 0.4121 -0.1841
vn -0.5964 0.4853 -0.6393
vn -0.9038 0.4180 0.0913
vn -0.9958 -0.0283 0.0876
vn -0.5554 -0.0553 0.8297
vn -0.5554 -0.0553 0.8297
vn -0.4872 0.4826 0.7278
vn -0.9038 0.4180 0.0913
vn -0.1828 0.4918 0.8513
vn -0.2127 -0.0056 0.9771
vn 0.2010 -0.0549 0.9781
vn 0.2010 -0.0549 0.9781
vn 0.1366 0.5294 0.8373
vn -0.1828 0.4918 0.8513
vn 0.7358 0.5622 0.3775
vn 0.8993 0.0223 0.4367
vn 0.9435 -0.0177 -0.3309
vn 0.9435 -0.0177 -0.3309
vn 0.8223 0.5166 -0.2387
vn 0.7358 0.5622 0.3775
vn 0.5294 0.5183 -0.6716
vn 0.6656 -0.0592 -0.7439
vn 0.2211 -0.0178 -0.9751
vn 0.2211 -0.0178 -0.9751
vn 0.1689 0.5357 -0.8274
vn 0.5294 0.5183 -0.6716
vn -0.0357 0.9987 0.0370
vn -0.3566 0.8555 -0.3753
vn -0.5016 0.8558 -0.1266
vn -0.0357 0.9987 0.0370
vn -0.5487 0.8349 0.0424
vn -0.2246 0.8611 0.4562
vn -0.0357 0.9987 0.0370
vn -0.1091 0.8409 0.5301
vn 0.0665 0.8817 0.4671
vn -0.0357 0.9987 0.0370
vn 0.3749 0.9053 0.1997
vn 0.4436 0.8876 -0.1236
vn -0.0357 0.9987 0.0370
vn 0.3035 0.8633 -0.4031
vn 0.1441 0.8243 -0.5475
vn -0.7927 -0.5839 -0.1754
vn -0.5671 -0.5927 -0.5719
vn -0.3042 -0.6947 -0.6518
vn -0.7768 -0.6290 0.0318
vn -0.8068 -0.5786 0.1199
vn -0.7927 -0.5839 -0.1754
vn -0.4263 -0.6375 0.6417
vn -0.8068 -0.5786 0.1199
vn -0.7768 -0.6290 0.0318
vn -0.1460 -0.6939 0.7051
vn -0.1672 -0.5756 0.8005
vn -0.4263 -0.6375 0.6417
vn 0.1608 -0.6550 0.7383
vn -0.1672 -0.5756 0.8005
vn -0.1460 -0.6939 0.7051
vn 0.5091 -0.8259 0.2423
vn 0.7296 -0.5973 0.3331
vn 0.1608 -0.6550 0.7383
vn 0.7605 -0.5916 -0.2676
vn 0.7296 -0.5973 0.3331
vn 0.5091 -0.8259 0.2423
vn 0.4378 -0.7514 -0.4937
vn 0.5043 -0.6065 -0.6147
vn 0.7605 -0.5916 -0.2676
vn 0.1785 -0.6459 -0.7423
vn 0.5043 -0.6065 -0.6147
vn 0.4378 -0.7514 -0.4937
vn -0.3042 -0.6947 -0.6518
vn -0.5671 -0.5927 -0.5719
vn 0.1785 -0.6459 -0.7423
# 315 vertex normals

vt 0.9000 0.9961 0.0000
vt 0.8008 0.8613 0.0000
vt 1.0000 0.8613 0.0000
vt 0.1003 0.9961 0.0000
vt 0.0000 0.8613 0.0000
vt 0.2997 0.9961 0.0000
vt 0.2012 0.8613 0.0000
vt 0.5002 0.9961 0.0000
vt 0.4004 0.8613 0.0000
vt 0.7001 0.9961 0.0000
vt 0.5996 0.8613 0.0000
vt 0.5996 0.7578 0.0000
vt 0.8008 0.7578 0.0000
vt 1.0000 0.7578 0.0000
vt 0.8000 0.5848 0.0000
vt 0.0000 0.7578 0.0000
vt 0.2012 0.7578 0.0000
vt 0.6001 0.5848 0.0000
vt 0.4004 0.7578 0.0000
vt 0.4002 0.5848 0.0000
vt 0.2003 0.5848 0.0000
vt 0.9999 0.5848 0.0000
vt 0.0004 0.5848 0.0000
vt 0.9258 0.5020 0.0000
vt 0.0742 0.5020 0.0000
vt 0.8750 0.5020 0.0000
vt 0.7246 0.5020 0.0000
vt 0.1250 0.5020 0.0000
vt 0.2754 0.5020 0.0000
vt 0.3262 0.5020 0.0000
vt 0.4746 0.5020 0.0000
vt 0.5254 0.5020 0.0000
vt 0.6738 0.5020 0.0000
vt 0.1465 0.4980 0.0000
vt 0.1094 0.4980 0.0000
vt 0.1836 0.4980 0.0000
vt 0.0352 0.4980 0.0000
vt 0.0020 0.4980 0.0000
vt 0.0742 0.4980 0.0000
vt 0.1094 0.3047 0.0000
vt 0.1484 0.3047 0.0000
vt 0.1836 0.3047 0.0000
vt 0.0020 0.3047 0.0000
vt 0.0371 0.3047 0.0000
vt 0.0742 0.3047 0.0000
vt 0.8008 0.7461 0.0000
vt 1.0000 0.7461 0.0000
vt 0.0000 0.7461 0.0000
vt 0.2012 0.7461 0.0000
vt 0.4004 0.7461 0.0000
vt 0.5996 0.7461 0.0000
vt 0.8008 0.7461 0.0000
vt 0.5996 0.7461 0.0000
vt 0.5996 0.5684 0.0000
vt 0.8008 0.5684 0.0000
vt 1.0000 0.7461 0.0000
vt 1.0000 0.5684 0.0000
vt 0.2012 0.7461 0.0000
vt 0.0000 0.7461 0.0000
vt 0.0000 0.5684 0.0000
vt 0.2012 0.5684 0.0000
vt 0.4004 0.7461 0.0000
vt 0.4004 0.5684 0.0000
vt 0.8008 0.5840 0.0000
vt 0.5996 0.5840 0.0000
vt 0.4004 0.5840 0.0000
vt 0.2012 0.5840 0.0000
vt 1.0000 0.5840 0.0000
vt 0.0000 0.5840 0.0000
vt 0.1475 0.4014 0.0000
vt 0.1094 0.4014 0.0000
vt 0.0020 0.4014 0.0000
vt 0.1836 0.4014 0.0000
vt 0.0361 0.4014 0.0000
vt 0.0742 0.4014 0.0000
vt 0.9004 0.8613 0.0000
vt 0.1006 0.8613 0.0000
vt 0.3008 0.8613 0.0000
vt 0.5000 0.8613 0.0000
vt 0.7002 0.8613 0.0000
vt 0.9004 0.7578 0.0000
vt 0.9004 0.5684 0.0000
vt 0.1006 0.7578 0.0000
vt 0.1006 0.5684 0.0000
vt 0.5000 0.7578 0.0000
vt 0.5000 0.5684 0.0000
vt 0.7002 0.7578 0.0000
vt 0.7002 0.5684 0.0000
vt 0.9004 0.5840 0.0000
vt 0.9000 0.5848 0.0000
vt 0.1006 0.5840 0.0000
vt 0.1003 0.5848 0.0000
vt 0.3008 0.5840 0.0000
vt 0.3002 0.5848 0.0000
vt 0.5000 0.5840 0.0000
vt 0.5002 0.5848 0.0000
vt 0.7001 0.5848 0.0000
vt 0.7002 0.5840 0.0000
vt 0.7002 0.7461 0.0000
vt 0.7002 0.7461 0.0000
vt 0.9004 0.7461 0.0000
vt 0.9004 0.7461 0.0000
vt 0.1006 0.7461 0.0000
vt 0.1006 0.7461 0.0000
vt 0.3008 0.7461 0.0000
vt 0.3008 0.7461 0.0000
vt 0.3008 0.5684 0.0000
vt 0.3008 0.7578 0.0000
vt 0.5000 0.7461 0.0000
vt 0.5000 0.7461 0.0000
# 110 texture coords

g MESH_tree_3
s 1
f 1/1/1 37/76/2 3/3/3 
f 1/4/4 38/77/5 4/7/6 
f 1/6/7 39/78/8 5/9/9 
f 1/8/10 40/79/11 6/11/12 
f 1/10/13 41/80/14 2/2/15 
f 2/2/16 25/46/17 52/102/18 
f 52/102/19 37/76/20 2/2/21 
f 3/5/22 27/48/23 53/104/24 
f 53/104/25 38/77/26 3/5/27 
f 4/7/28 28/49/29 54/106/30 
f 54/106/31 39/78/32 4/7/33 
f 5/9/34 30/50/35 56/110/36 
f 56/110/37 40/79/38 5/9/39 
f 6/11/40 26/51/41 51/100/42 
f 51/100/43 41/80/44 6/11/45 
f 45/87/46 50/98/47 11/64/48 
f 11/64/49 7/13/50 45/87/51 
f 42/81/52 46/89/53 10/68/54 
f 10/68/55 8/14/56 42/81/57 
f 43/83/58 47/91/59 12/67/60 
f 12/67/61 29/17/62 43/83/63 
f 55/108/64 48/93/65 13/66/66 
f 13/66/67 31/19/68 55/108/69 
f 44/85/70 49/95/71 14/65/72 
f 14/65/73 9/12/74 44/85/75 
f 15/24/76 46/90/77 16/26/78 
f 17/28/79 47/92/80 15/25/81 
f 18/30/82 48/94/83 17/29/84 
f 19/32/85 49/96/86 18/31/87 
f 16/27/88 50/97/89 19/33/90 
f 15/34/91 16/35/92 33/71/93 
f 33/71/94 32/70/95 15/34/96 
f 17/36/97 15/34/98 32/70/99 
f 32/70/100 34/73/101 17/36/102 
f 18/37/103 17/38/104 34/72/105 
f 34/72/106 35/74/107 18/37/108 
f 19/39/109 18/37/110 35/74/111 
f 35/74/112 36/75/113 19/39/114 
f 16/35/115 19/39/116 36/75/117 
f 36/75/118 33/71/119 16/35/120 
f 25/52/121 51/99/122 45/88/123 
f 45/88/124 7/55/125 25/52/126 
f 27/56/127 52/101/128 42/82/129 
f 42/82/130 8/57/131 27/56/132 
f 28/58/133 53/103/134 43/84/135 
f 43/84/136 29/61/137 28/58/138 
f 30/62/139 54/105/140 55/107/141 
f 55/107/142 31/63/143 30/62/144 
f 26/53/145 56/109/146 44/86/147 
f 44/86/148 9/54/149 26/53/150 
f 33/71/151 21/40/152 20/41/153 
f 20/41/154 32/70/155 33/71/156 
f 32/70/157 20/41/158 22/42/159 
f 22/42/160 34/73/161 32/70/162 
f 34/72/163 22/43/164 23/44/165 
f 23/44/166 35/74/167 34/72/168 
f 35/74/169 23/44/170 24/45/171 
f 24/45/172 36/75/173 35/74/174 
f 36/75/175 24/45/176 21/40/177 
f 21/40/178 33/71/179 36/75/180 
f 52/102/181 27/47/182 3/3/183 
f 3/3/184 37/76/185 52/102/186 
f 53/104/187 28/49/188 4/7/189 
f 4/7/190 38/77/191 53/104/192 
f 54/106/193 30/50/194 5/9/195 
f 5/9/196 39/78/197 54/106/198 
f 56/110/199 26/51/200 6/11/201 
f 6/11/202 40/79/203 56/110/204 
f 51/100/205 25/46/206 2/2/207 
f 2/2/208 41/80/209 51/100/210 
f 45/87/211 9/12/212 14/65/213 
f 14/65/214 50/98/215 45/87/216 
f 42/81/217 7/13/218 11/64/219 
f 11/64/220 46/89/221 42/81/222 
f 43/83/223 8/16/224 10/69/225 
f 10/69/226 47/91/227 43/83/228 
f 55/108/229 29/17/230 12/67/231 
f 12/67/232 48/93/233 55/108/234 
f 44/85/235 31/19/236 13/66/237 
f 13/66/238 49/95/239 44/85/240 
f 26/53/241 9/54/242 45/88/243 
f 45/88/244 51/99/245 26/53/246 
f 25/52/247 7/55/248 42/82/249 
f 42/82/250 52/101/251 25/52/252 
f 27/59/253 8/60/254 43/84/255 
f 43/84/256 53/103/257 27/59/258 
f 28/58/259 29/61/260 55/107/261 
f 55/107/262 54/105/263 28/58/264 
f 30/62/265 31/63/266 44/86/267 
f 44/86/268 56/109/269 30/62/270 
f 1/10/271 6/11/272 41/80/273 
f 1/1/274 2/2/275 37/76/276 
f 1/4/277 3/5/278 38/77/279 
f 1/6/280 4/7/281 39/78/282 
f 1/8/283 5/9/284 40/79/285 
f 50/97/286 14/18/287 19/33/288 
f 16/27/289 11/15/290 50/97/291 
f 46/90/292 11/15/293 16/26/294 
f 15/24/295 10/22/296 46/90/297 
f 47/92/298 10/23/299 15/25/300 
f 17/28/301 12/21/302 47/92/303 
f 48/94/304 12/21/305 17/29/306 
f 18/30/307 13/20/308 48/94/309 
f 49/96/310 13/20/311 18/31/312 
f 19/32/313 14/18/314 49/96/315 
# 105 faces

