# 3ds Max Wavefront OBJ Exporter v0.97b - (c)2007 guruware
# File Created: 25.07.2012 12:29:13

#
# object MESH_tree_5
#

v  0.0000 21.9239 -0.0000
v  -5.0688 18.6773 1.1020
v  -0.5182 18.6773 5.1612
v  4.7486 18.6773 2.0877
v  3.4530 18.6773 -3.8711
v  -2.6145 18.6773 -4.4802
v  -7.1617 12.7964 1.7197
v  -0.5774 12.7964 7.3424
v  6.8047 12.7964 2.8181
v  4.7830 12.7964 -5.6009
v  -3.8487 12.7964 -6.2797
v  -0.2594 7.3463 5.4330
v  -5.2473 7.3463 1.4322
v  5.0870 7.3463 1.9255
v  3.4033 7.3463 -4.2431
v  -2.9837 7.3463 -4.5479
v  -0.0632 4.7051 1.3229
v  -1.2777 4.7051 0.3487
v  1.2386 4.7051 0.4688
v  0.8286 4.7051 -1.0332
v  -0.7265 4.7051 -1.1075
v  -0.0858 -0.0000 1.7964
v  -1.7351 -0.0000 0.4735
v  1.6821 -0.0000 0.6366
v  1.1253 -0.0000 -1.4030
v  -0.9866 -0.0000 -1.5039
# 26 vertices

vn 0.0000 1.0000 0.0000
vn -0.6738 0.5743 0.4650
vn 0.2340 0.5742 0.7845
vn 0.0000 1.0000 0.0000
vn 0.2340 0.5742 0.7845
vn 0.8184 0.5742 0.0199
vn 0.0000 1.0000 0.0000
vn 0.8184 0.5742 0.0199
vn 0.2718 0.5742 -0.7722
vn 0.0000 1.0000 0.0000
vn 0.2718 0.5742 -0.7722
vn -0.6504 0.5743 -0.4972
vn 0.0000 1.0000 0.0000
vn -0.6504 0.5743 -0.4972
vn -0.6738 0.5743 0.4650
vn 0.3085 0.0130 0.9511
vn 0.2340 0.5742 0.7845
vn -0.6738 0.5743 0.4650
vn -0.6738 0.5743 0.4650
vn -0.8092 0.0130 0.5873
vn 0.3085 0.0130 0.9511
vn 0.9999 0.0130 0.0005
vn 0.8184 0.5742 0.0199
vn 0.2340 0.5742 0.7845
vn 0.2340 0.5742 0.7845
vn 0.3085 0.0130 0.9511
vn 0.9999 0.0130 0.0005
vn 0.3095 0.0130 -0.9508
vn 0.2718 0.5742 -0.7722
vn 0.8184 0.5742 0.0199
vn 0.8184 0.5742 0.0199
vn 0.9999 0.0130 0.0005
vn 0.3095 0.0130 -0.9508
vn -0.8087 0.0130 -0.5881
vn -0.6504 0.5743 -0.4972
vn 0.2718 0.5742 -0.7722
vn 0.2718 0.5742 -0.7722
vn 0.3095 0.0130 -0.9508
vn -0.8087 0.0130 -0.5881
vn -0.8092 0.0130 0.5873
vn -0.6738 0.5743 0.4650
vn -0.6504 0.5743 -0.4972
vn -0.6504 0.5743 -0.4972
vn -0.8087 0.0130 -0.5881
vn -0.8092 0.0130 0.5873
vn -0.8092 0.0130 0.5873
vn -0.8087 0.0130 -0.5881
vn -0.6809 -0.5706 -0.4592
vn -0.6809 -0.5706 -0.4592
vn -0.6471 -0.5706 0.5057
vn -0.8092 0.0130 0.5873
vn 0.3085 0.0130 0.9511
vn -0.8092 0.0130 0.5873
vn -0.6471 -0.5706 0.5057
vn -0.6471 -0.5706 0.5057
vn 0.2810 -0.5706 0.7717
vn 0.3085 0.0130 0.9511
vn 0.9999 0.0130 0.0005
vn 0.3085 0.0130 0.9511
vn 0.2810 -0.5706 0.7717
vn 0.2810 -0.5706 0.7717
vn 0.8207 -0.5706 -0.0288
vn 0.9999 0.0130 0.0005
vn 0.3095 0.0130 -0.9508
vn 0.9999 0.0130 0.0005
vn 0.8207 -0.5706 -0.0288
vn 0.8207 -0.5706 -0.0288
vn 0.2263 -0.5706 -0.7895
vn 0.3095 0.0130 -0.9508
vn -0.8087 0.0130 -0.5881
vn 0.3095 0.0130 -0.9508
vn 0.2263 -0.5706 -0.7895
vn 0.2263 -0.5706 -0.7895
vn -0.6809 -0.5706 -0.4592
vn -0.8087 0.0130 -0.5881
vn -0.6471 -0.5706 0.5057
vn -0.6671 -0.5366 0.5168
vn 0.2853 -0.5366 0.7941
vn 0.2853 -0.5366 0.7941
vn 0.2810 -0.5706 0.7717
vn -0.6471 -0.5706 0.5057
vn 0.8207 -0.5706 -0.0288
vn 0.2810 -0.5706 0.7717
vn 0.2853 -0.5366 0.7941
vn 0.2853 -0.5366 0.7941
vn 0.8434 -0.5366 -0.0260
vn 0.8207 -0.5706 -0.0288
vn 0.2263 -0.5706 -0.7895
vn 0.8207 -0.5706 -0.0288
vn 0.8434 -0.5366 -0.0260
vn 0.8434 -0.5366 -0.0260
vn 0.2359 -0.5366 -0.8102
vn 0.2263 -0.5706 -0.7895
vn -0.6809 -0.5706 -0.4592
vn 0.2263 -0.5706 -0.7895
vn 0.2359 -0.5366 -0.8102
vn 0.2359 -0.5366 -0.8102
vn -0.6976 -0.5366 -0.4747
vn -0.6809 -0.5706 -0.4592
vn -0.6809 -0.5706 -0.4592
vn -0.6976 -0.5366 -0.4747
vn -0.6671 -0.5366 0.5168
vn -0.6671 -0.5366 0.5168
vn -0.6471 -0.5706 0.5057
vn -0.6809 -0.5706 -0.4592
vn 0.2853 -0.5366 0.7941
vn -0.6671 -0.5366 0.5168
vn -0.7865 0.1003 0.6093
vn -0.7865 0.1003 0.6093
vn 0.3365 0.1003 0.9363
vn 0.2853 -0.5366 0.7941
vn 0.8434 -0.5366 -0.0260
vn 0.2853 -0.5366 0.7941
vn 0.3365 0.1003 0.9363
vn 0.3365 0.1003 0.9363
vn 0.9945 0.1003 -0.0306
vn 0.8434 -0.5366 -0.0260
vn 0.2359 -0.5366 -0.8102
vn 0.8434 -0.5366 -0.0260
vn 0.9945 0.1003 -0.0306
vn 0.9945 0.1003 -0.0306
vn 0.2782 0.1003 -0.9553
vn 0.2359 -0.5366 -0.8102
vn -0.6976 -0.5366 -0.4747
vn 0.2359 -0.5366 -0.8102
vn 0.2782 0.1003 -0.9553
vn 0.2782 0.1003 -0.9553
vn -0.8226 0.1003 -0.5598
vn -0.6976 -0.5366 -0.4747
vn -0.6671 -0.5366 0.5168
vn -0.6976 -0.5366 -0.4747
vn -0.8226 0.1003 -0.5598
vn -0.8226 0.1003 -0.5598
vn -0.7865 0.1003 0.6093
vn -0.6671 -0.5366 0.5168
# 135 vertex normals

vt 0.9000 0.9961 0.0000
vt 0.8000 0.8621 0.0000
vt 0.9999 0.8621 0.0000
vt 0.1003 0.9961 0.0000
vt 0.0004 0.8621 0.0000
vt 0.2997 0.9961 0.0000
vt 0.2003 0.8621 0.0000
vt 0.5002 0.9961 0.0000
vt 0.4002 0.8621 0.0000
vt 0.7001 0.9961 0.0000
vt 0.6001 0.8621 0.0000
vt 0.6001 0.7234 0.0000
vt 0.8000 0.7234 0.0000
vt 0.9999 0.7234 0.0000
vt 0.8000 0.5848 0.0000
vt 0.0004 0.7234 0.0000
vt 0.2003 0.7234 0.0000
vt 0.6001 0.5848 0.0000
vt 0.4002 0.7234 0.0000
vt 0.4002 0.5848 0.0000
vt 0.2003 0.5848 0.0000
vt 0.9999 0.5848 0.0000
vt 0.0004 0.5848 0.0000
vt 0.9258 0.5020 0.0000
vt 0.0742 0.5020 0.0000
vt 0.8750 0.5020 0.0000
vt 0.7246 0.5020 0.0000
vt 0.1250 0.5020 0.0000
vt 0.2754 0.5020 0.0000
vt 0.3262 0.5020 0.0000
vt 0.4746 0.5020 0.0000
vt 0.5254 0.5020 0.0000
vt 0.6738 0.5020 0.0000
vt 0.1465 0.4980 0.0000
vt 0.1094 0.4980 0.0000
vt 0.1836 0.4980 0.0000
vt 0.0352 0.4980 0.0000
vt 0.0020 0.4980 0.0000
vt 0.0742 0.4980 0.0000
vt 0.1094 0.3047 0.0000
vt 0.1484 0.3047 0.0000
vt 0.1836 0.3047 0.0000
vt 0.0020 0.3047 0.0000
vt 0.0371 0.3047 0.0000
vt 0.0742 0.3047 0.0000
# 45 texture coords

g MESH_tree_5
s 1
f 1/1/1 2/2/2 3/3/3 
f 1/4/4 3/5/5 4/7/6 
f 1/6/7 4/7/8 5/9/9 
f 1/8/10 5/9/11 6/11/12 
f 1/10/13 6/11/14 2/2/15 
f 8/14/16 3/3/17 2/2/18 
f 2/2/19 7/13/20 8/14/21 
f 9/17/22 4/7/23 3/5/24 
f 3/5/25 8/16/26 9/17/27 
f 10/19/28 5/9/29 4/7/30 
f 4/7/31 9/17/32 10/19/33 
f 11/12/34 6/11/35 5/9/36 
f 5/9/37 10/19/38 11/12/39 
f 7/13/40 2/2/41 6/11/42 
f 6/11/43 11/12/44 7/13/45 
f 7/13/46 11/12/47 16/18/48 
f 16/18/49 13/15/50 7/13/51 
f 8/14/52 7/13/53 13/15/54 
f 13/15/55 12/22/56 8/14/57 
f 9/17/58 8/16/59 12/23/60 
f 12/23/61 14/21/62 9/17/63 
f 10/19/64 9/17/65 14/21/66 
f 14/21/67 15/20/68 10/19/69 
f 11/12/70 10/19/71 15/20/72 
f 15/20/73 16/18/74 11/12/75 
f 13/15/76 18/26/77 17/24/78 
f 17/24/79 12/22/80 13/15/81 
f 14/21/82 12/23/83 17/25/84 
f 17/25/85 19/28/86 14/21/87 
f 15/20/88 14/21/89 19/29/90 
f 19/29/91 20/30/92 15/20/93 
f 16/18/94 15/20/95 20/31/96 
f 20/31/97 21/32/98 16/18/99 
f 16/18/100 21/33/101 18/27/102 
f 18/27/103 13/15/104 16/18/105 
f 17/34/106 18/35/107 23/40/108 
f 23/40/109 22/41/110 17/34/111 
f 19/36/112 17/34/113 22/41/114 
f 22/41/115 24/42/116 19/36/117 
f 20/37/118 19/38/119 24/43/120 
f 24/43/121 25/44/122 20/37/123 
f 21/39/124 20/37/125 25/44/126 
f 25/44/127 26/45/128 21/39/129 
f 18/35/130 21/39/131 26/45/132 
f 26/45/133 23/40/134 18/35/135 
# 45 faces

