# 3ds Max Wavefront OBJ Exporter v0.97b - (c)2007 guruware
# File Created: 31.07.2012 10:37:50

#
# object MESH_tree_12
#

v  0.0132 31.9886 0.3115
v  -4.4209 29.2463 1.2755
v  -0.4402 29.2463 4.8263
v  4.1669 29.2463 2.1377
v  3.0336 29.2463 -3.0747
v  -2.2739 29.2463 -3.6076
v  -0.5191 26.4047 7.0793
v  -6.5879 26.4047 1.8967
v  6.2852 26.4047 2.9090
v  4.4216 26.4047 -4.8510
v  -3.5343 26.4047 -5.4765
v  -10.3373 15.4677 3.0328
v  -5.7735 15.4677 -8.6913
v  -3.6334 10.6561 -5.2467
v  -6.3999 10.6561 2.0619
v  -0.5972 15.4677 10.9962
v  -0.3039 10.6561 6.9515
v  9.9863 15.4677 4.1937
v  6.2301 10.6561 2.6648
v  6.7871 15.4677 -7.9739
v  4.1724 10.6561 -4.8741
v  -2.1175 8.4252 0.8930
v  -0.0923 8.4252 2.5176
v  2.0787 8.4252 1.0934
v  1.3950 8.4252 -1.4114
v  -1.1984 8.4252 -1.5352
v  -2.1533 4.2192 0.9028
v  -0.0940 4.2192 2.5546
v  2.1133 4.2192 1.1065
v  1.4181 4.2192 -1.4403
v  -1.2188 4.2192 -1.5662
v  -4.8481 21.2585 -7.3922
v  -8.8158 21.2585 2.5541
v  -0.5823 21.2585 9.4013
v  8.4740 21.2585 3.6866
v  5.8376 21.2585 -6.6923
v  -3.8320 0.0000 1.3610
v  -0.1770 0.0000 4.2927
v  3.7408 0.0000 1.7225
v  2.5069 0.0000 -2.7977
v  -2.1734 0.0000 -3.0212
# 41 vertices

vn 0.0000 1.0000 -0.0000
vn -0.7967 0.2473 0.5515
vn 0.2779 0.2465 0.9285
vn 0.9691 0.2457 0.0226
vn 0.3210 0.2453 -0.9148
vn -0.7702 0.2457 -0.5886
vn 0.3054 0.1484 0.9406
vn -0.8000 0.1496 0.5810
vn 0.9888 0.1495 -0.0001
vn 0.3055 0.1484 -0.9406
vn -0.7999 0.1495 -0.5812
vn -0.7946 -0.0614 0.6040
vn -0.8197 -0.0613 -0.5694
vn -0.7883 -0.3027 -0.5356
vn -0.7529 -0.3026 0.5845
vn 0.3285 -0.0617 0.9425
vn 0.3231 -0.3027 0.8966
vn 0.9979 -0.0609 -0.0219
vn 0.9526 -0.3027 -0.0303
vn 0.2879 -0.0615 -0.9557
vn 0.2662 -0.3025 -0.9152
vn -0.7667 -0.2439 0.5939
vn 0.3282 -0.2437 0.9126
vn 0.9693 -0.2438 -0.0307
vn 0.2708 -0.2436 -0.9313
vn -0.8018 -0.2437 -0.5456
vn -0.7810 0.1548 0.6050
vn 0.3339 0.1549 0.9298
vn 0.9875 0.1549 -0.0306
vn 0.2762 0.1549 -0.9485
vn -0.8166 0.1548 -0.5560
vn -0.8119 0.1022 -0.5748
vn -0.7972 0.1026 0.5949
vn 0.3197 0.1016 0.9421
vn 0.9946 0.1026 -0.0129
vn 0.2950 0.1026 -0.9500
vn -0.7581 0.2834 0.5873
vn 0.3242 0.2834 0.9025
vn 0.9586 0.2834 -0.0295
vn 0.2683 0.2834 -0.9207
vn -0.7928 0.2835 -0.5395
# 41 vertex normals

vt 0.9000 0.9961 0.0000
vt 0.8008 0.8613 0.0000
vt 1.0000 0.8613 0.0000
vt 0.1003 0.9961 0.0000
vt 0.0000 0.8613 0.0000
vt 0.2012 0.8613 0.0000
vt 0.2997 0.9961 0.0000
vt 0.4004 0.8613 0.0000
vt 0.5002 0.9961 0.0000
vt 0.5996 0.8613 0.0000
vt 0.7001 0.9961 0.0000
vt 1.0000 0.7461 0.0000
vt 0.8008 0.7461 0.0000
vt 0.2012 0.7461 0.0000
vt 0.0000 0.7461 0.0000
vt 0.4004 0.7461 0.0000
vt 0.5996 0.7461 0.0000
vt 0.8008 0.7578 0.0000
vt 0.5996 0.7578 0.0000
vt 0.5996 0.5840 0.0000
vt 0.8008 0.5840 0.0000
vt 1.0000 0.7578 0.0000
vt 1.0000 0.5840 0.0000
vt 0.2012 0.7578 0.0000
vt 0.0000 0.7578 0.0000
vt 0.0000 0.5840 0.0000
vt 0.2012 0.5840 0.0000
vt 0.4004 0.7578 0.0000
vt 0.4004 0.5840 0.0000
vt 0.8000 0.5848 0.0000
vt 0.8750 0.5020 0.0000
vt 0.9258 0.5020 0.0000
vt 0.9999 0.5848 0.0000
vt 0.2003 0.5848 0.0000
vt 0.0004 0.5848 0.0000
vt 0.0742 0.5020 0.0000
vt 0.1250 0.5020 0.0000
vt 0.4002 0.5848 0.0000
vt 0.2754 0.5020 0.0000
vt 0.3262 0.5020 0.0000
vt 0.6001 0.5848 0.0000
vt 0.4746 0.5020 0.0000
vt 0.5254 0.5020 0.0000
vt 0.6738 0.5020 0.0000
vt 0.7246 0.5020 0.0000
vt 0.1094 0.4980 0.0000
vt 0.1094 0.4014 0.0000
vt 0.1475 0.4014 0.0000
vt 0.1465 0.4980 0.0000
vt 0.1836 0.4014 0.0000
vt 0.1836 0.4980 0.0000
vt 0.0020 0.4980 0.0000
vt 0.0020 0.4014 0.0000
vt 0.0361 0.4014 0.0000
vt 0.0352 0.4980 0.0000
vt 0.0742 0.4014 0.0000
vt 0.0742 0.4980 0.0000
vt 0.5996 0.5684 0.0000
vt 0.8008 0.5684 0.0000
vt 1.0000 0.5684 0.0000
vt 0.0000 0.5684 0.0000
vt 0.2012 0.5684 0.0000
vt 0.4004 0.5684 0.0000
vt 0.1094 0.3047 0.0000
vt 0.1484 0.3047 0.0000
vt 0.1836 0.3047 0.0000
vt 0.0020 0.3047 0.0000
vt 0.0371 0.3047 0.0000
vt 0.0742 0.3047 0.0000
vt 0.8008 0.8418 0.0000
vt 0.5996 0.8418 0.0000
vt 0.5996 0.6543 0.0000
vt 0.8008 0.6543 0.0000
vt 1.0000 0.8418 0.0000
vt 1.0000 0.6543 0.0000
vt 0.2012 0.8418 0.0000
vt 0.0000 0.8418 0.0000
vt 0.0000 0.6543 0.0000
vt 0.2012 0.6543 0.0000
vt 0.4004 0.8418 0.0000
vt 0.4004 0.6543 0.0000
# 81 texture coords

g MESH_tree_12
s 1
f 1/1/1 2/2/2 3/3/3 
f 1/4/1 3/5/3 4/6/4 
f 1/7/1 4/6/4 5/8/5 
f 1/9/1 5/8/5 6/10/6 
f 1/11/1 6/10/6 2/2/2 
f 7/12/7 3/3/3 2/2/2 
f 2/2/2 8/13/8 7/12/7 
f 9/14/9 4/6/4 3/5/3 
f 3/5/3 7/15/7 9/14/9 
f 10/16/10 5/8/5 4/6/4 
f 4/6/4 9/14/9 10/16/10 
f 11/17/11 6/10/6 5/8/5 
f 5/8/5 10/16/10 11/17/11 
f 8/13/8 2/2/2 6/10/6 
f 6/10/6 11/17/11 8/13/8 
f 12/18/12 13/19/13 14/20/14 
f 14/20/14 15/21/15 12/18/12 
f 16/22/16 12/18/12 15/21/15 
f 15/21/15 17/23/17 16/22/16 
f 18/24/18 16/25/16 17/26/17 
f 17/26/17 19/27/19 18/24/18 
f 20/28/20 18/24/18 19/27/19 
f 19/27/19 21/29/21 20/28/20 
f 13/19/13 20/28/20 21/29/21 
f 21/29/21 14/20/14 13/19/13 
f 15/30/15 22/31/22 23/32/23 
f 23/32/23 17/33/17 15/30/15 
f 19/34/19 17/35/17 23/36/23 
f 23/36/23 24/37/24 19/34/19 
f 21/38/21 19/34/19 24/39/24 
f 24/39/24 25/40/25 21/38/21 
f 14/41/14 21/38/21 25/42/25 
f 25/42/25 26/43/26 14/41/14 
f 14/41/14 26/44/26 22/45/22 
f 22/45/22 15/30/15 14/41/14 
f 22/46/22 27/47/27 28/48/28 
f 28/48/28 23/49/23 22/46/22 
f 23/49/23 28/48/28 29/50/29 
f 29/50/29 24/51/24 23/49/23 
f 24/52/24 29/53/29 30/54/30 
f 30/54/30 25/55/25 24/52/24 
f 25/55/25 30/54/30 31/56/31 
f 31/56/31 26/57/26 25/55/25 
f 26/57/26 31/56/31 27/47/27 
f 27/47/27 22/46/22 26/57/26 
f 8/13/8 11/17/11 32/58/32 
f 32/58/32 33/59/33 8/13/8 
f 7/12/7 8/13/8 33/59/33 
f 33/59/33 34/60/34 7/12/7 
f 9/14/9 7/15/7 34/61/34 
f 34/61/34 35/62/35 9/14/9 
f 10/16/10 9/14/9 35/62/35 
f 35/62/35 36/63/36 10/16/10 
f 11/17/11 10/16/10 36/63/36 
f 36/63/36 32/58/32 11/17/11 
f 37/64/37 38/65/38 28/48/28 
f 28/48/28 27/47/27 37/64/37 
f 38/65/38 39/66/39 29/50/29 
f 29/50/29 28/48/28 38/65/38 
f 39/67/39 40/68/40 30/54/30 
f 30/54/30 29/53/29 39/67/39 
f 40/68/40 41/69/41 31/56/31 
f 31/56/31 30/54/30 40/68/40 
f 41/69/41 37/64/37 27/47/27 
f 27/47/27 31/56/31 41/69/41 
f 33/70/33 32/71/32 13/72/13 
f 13/72/13 12/73/12 33/70/33 
f 34/74/34 33/70/33 12/73/12 
f 12/73/12 16/75/16 34/74/34 
f 35/76/35 34/77/34 16/78/16 
f 16/78/16 18/79/18 35/76/35 
f 36/80/36 35/76/35 18/79/18 
f 18/79/18 20/81/20 36/80/36 
f 32/71/32 36/80/36 20/81/20 
f 20/81/20 13/72/13 32/71/32 
# 0 polygons - 75 triangles

