# 3ds Max Wavefront OBJ Exporter v0.97b - (c)2007 guruware
# File Created: 31.07.2012 10:53:47

#
# object MESH_tree_4
#

v  0.0123 32.5984 0.2891
v  -4.1033 30.1203 1.1839
v  -0.4086 30.1203 4.4796
v  3.8676 30.1203 1.9842
v  2.8157 30.1203 -2.8538
v  -2.1105 30.1203 -3.3484
v  -0.5129 25.6907 6.9656
v  -6.4998 25.6907 1.8529
v  6.1996 25.6907 2.8516
v  4.3612 25.6907 -4.8036
v  -3.4875 25.6907 -5.4208
v  -8.1825 19.1461 2.3706
v  -4.4998 19.1461 -6.8611
v  -4.1255 13.1443 -6.0178
v  -7.2646 13.1443 2.2753
v  -0.5405 19.1461 8.7259
v  -0.3476 13.1443 7.8236
v  7.8652 19.1461 3.4218
v  7.0666 13.1443 2.9594
v  5.4182 19.1461 -6.2116
v  4.7318 13.1443 -5.5950
v  -1.9654 10.3846 0.8288
v  -0.0857 10.3846 2.3367
v  1.9294 10.3846 1.0149
v  1.2948 10.3846 -1.3100
v  -1.1123 10.3846 -1.4249
v  -1.6457 5.1923 0.7416
v  -0.0698 5.1923 2.0057
v  1.6194 5.1923 0.8974
v  1.0873 5.1923 -1.0514
v  -0.9306 5.1923 -1.1478
v  -2.6734 0.0000 1.0221
v  -0.1206 0.0000 3.0697
v  2.6156 0.0000 1.2745
v  1.7539 0.0000 -1.8824
v  -1.5149 0.0000 -2.0385
# 36 vertices

vn 0.0000 1.0000 -0.0000
vn -0.7722 0.3438 0.5344
vn 0.2694 0.3439 0.8995
vn 0.9388 0.3439 0.0218
vn 0.3106 0.3439 -0.8861
vn -0.7467 0.3439 -0.5694
vn 0.3035 0.1810 0.9355
vn -0.7958 0.1808 0.5780
vn 0.9834 0.1813 0.0004
vn 0.3044 0.1811 -0.9352
vn -0.7955 0.1812 -0.5782
vn -0.8013 0.0252 0.5978
vn -0.8161 0.0250 -0.5773
vn -0.7855 -0.3144 -0.5331
vn -0.7498 -0.3144 0.5822
vn 0.3211 0.0256 0.9467
vn 0.3220 -0.3144 0.8930
vn 0.9996 0.0254 -0.0129
vn 0.9488 -0.3145 -0.0303
vn 0.2969 0.0254 -0.9546
vn 0.2642 -0.3145 -0.9118
vn -0.7195 -0.4142 0.5575
vn 0.3078 -0.4143 0.8565
vn 0.9097 -0.4142 -0.0282
vn 0.2543 -0.4144 -0.8739
vn -0.7524 -0.4142 -0.5122
vn -0.7884 0.0729 0.6108
vn 0.3372 0.0729 0.9386
vn 0.9969 0.0729 -0.0307
vn 0.2788 0.0729 -0.9576
vn -0.8245 0.0730 -0.5611
vn -0.7744 0.2010 0.5999
vn 0.3313 0.2010 0.9219
vn 0.9791 0.2010 -0.0302
vn 0.2739 0.2010 -0.9405
vn -0.8099 0.2010 -0.5511
# 36 vertex normals

vt 0.9000 0.9961 0.0000
vt 0.8008 0.8613 0.0000
vt 1.0000 0.8613 0.0000
vt 0.1003 0.9961 0.0000
vt 0.0000 0.8613 0.0000
vt 0.2012 0.8613 0.0000
vt 0.2997 0.9961 0.0000
vt 0.4004 0.8613 0.0000
vt 0.5002 0.9961 0.0000
vt 0.5996 0.8613 0.0000
vt 0.7001 0.9961 0.0000
vt 1.0000 0.7461 0.0000
vt 0.8008 0.7461 0.0000
vt 0.2012 0.7461 0.0000
vt 0.0000 0.7461 0.0000
vt 0.4004 0.7461 0.0000
vt 0.5996 0.7461 0.0000
vt 0.8008 0.7578 0.0000
vt 0.5996 0.7578 0.0000
vt 0.5996 0.5840 0.0000
vt 0.8008 0.5840 0.0000
vt 1.0000 0.7578 0.0000
vt 1.0000 0.5840 0.0000
vt 0.2012 0.7578 0.0000
vt 0.0000 0.7578 0.0000
vt 0.0000 0.5840 0.0000
vt 0.2012 0.5840 0.0000
vt 0.4004 0.7578 0.0000
vt 0.4004 0.5840 0.0000
vt 0.8000 0.5848 0.0000
vt 0.8750 0.5020 0.0000
vt 0.9258 0.5020 0.0000
vt 0.9999 0.5848 0.0000
vt 0.2003 0.5848 0.0000
vt 0.0004 0.5848 0.0000
vt 0.0742 0.5020 0.0000
vt 0.1250 0.5020 0.0000
vt 0.4002 0.5848 0.0000
vt 0.2754 0.5020 0.0000
vt 0.3262 0.5020 0.0000
vt 0.6001 0.5848 0.0000
vt 0.4746 0.5020 0.0000
vt 0.5254 0.5020 0.0000
vt 0.6738 0.5020 0.0000
vt 0.7246 0.5020 0.0000
vt 0.1094 0.4980 0.0000
vt 0.1094 0.4014 0.0000
vt 0.1475 0.4014 0.0000
vt 0.1465 0.4980 0.0000
vt 0.1836 0.4014 0.0000
vt 0.1836 0.4980 0.0000
vt 0.0020 0.4980 0.0000
vt 0.0020 0.4014 0.0000
vt 0.0361 0.4014 0.0000
vt 0.0352 0.4980 0.0000
vt 0.0742 0.4014 0.0000
vt 0.0742 0.4980 0.0000
vt 0.5996 0.5684 0.0000
vt 0.8008 0.5684 0.0000
vt 1.0000 0.5684 0.0000
vt 0.0000 0.5684 0.0000
vt 0.2012 0.5684 0.0000
vt 0.4004 0.5684 0.0000
vt 0.1094 0.3047 0.0000
vt 0.1484 0.3047 0.0000
vt 0.1836 0.3047 0.0000
vt 0.0020 0.3047 0.0000
vt 0.0371 0.3047 0.0000
vt 0.0742 0.3047 0.0000
# 69 texture coords

g MESH_tree_4
s 1
f 1/1/1 2/2/2 3/3/3 
f 1/4/1 3/5/3 4/6/4 
f 1/7/1 4/6/4 5/8/5 
f 1/9/1 5/8/5 6/10/6 
f 1/11/1 6/10/6 2/2/2 
f 7/12/7 3/3/3 2/2/2 
f 2/2/2 8/13/8 7/12/7 
f 9/14/9 4/6/4 3/5/3 
f 3/5/3 7/15/7 9/14/9 
f 10/16/10 5/8/5 4/6/4 
f 4/6/4 9/14/9 10/16/10 
f 11/17/11 6/10/6 5/8/5 
f 5/8/5 10/16/10 11/17/11 
f 8/13/8 2/2/2 6/10/6 
f 6/10/6 11/17/11 8/13/8 
f 12/18/12 13/19/13 14/20/14 
f 14/20/14 15/21/15 12/18/12 
f 16/22/16 12/18/12 15/21/15 
f 15/21/15 17/23/17 16/22/16 
f 18/24/18 16/25/16 17/26/17 
f 17/26/17 19/27/19 18/24/18 
f 20/28/20 18/24/18 19/27/19 
f 19/27/19 21/29/21 20/28/20 
f 13/19/13 20/28/20 21/29/21 
f 21/29/21 14/20/14 13/19/13 
f 15/30/15 22/31/22 23/32/23 
f 23/32/23 17/33/17 15/30/15 
f 19/34/19 17/35/17 23/36/23 
f 23/36/23 24/37/24 19/34/19 
f 21/38/21 19/34/19 24/39/24 
f 24/39/24 25/40/25 21/38/21 
f 14/41/14 21/38/21 25/42/25 
f 25/42/25 26/43/26 14/41/14 
f 14/41/14 26/44/26 22/45/22 
f 22/45/22 15/30/15 14/41/14 
f 22/46/22 27/47/27 28/48/28 
f 28/48/28 23/49/23 22/46/22 
f 23/49/23 28/48/28 29/50/29 
f 29/50/29 24/51/24 23/49/23 
f 24/52/24 29/53/29 30/54/30 
f 30/54/30 25/55/25 24/52/24 
f 25/55/25 30/54/30 31/56/31 
f 31/56/31 26/57/26 25/55/25 
f 26/57/26 31/56/31 27/47/27 
f 27/47/27 22/46/22 26/57/26 
f 8/13/8 11/17/11 13/58/13 
f 13/58/13 12/59/12 8/13/8 
f 7/12/7 8/13/8 12/59/12 
f 12/59/12 16/60/16 7/12/7 
f 9/14/9 7/15/7 16/61/16 
f 16/61/16 18/62/18 9/14/9 
f 10/16/10 9/14/9 18/62/18 
f 18/62/18 20/63/20 10/16/10 
f 11/17/11 10/16/10 20/63/20 
f 20/63/20 13/58/13 11/17/11 
f 32/64/32 33/65/33 28/48/28 
f 28/48/28 27/47/27 32/64/32 
f 33/65/33 34/66/34 29/50/29 
f 29/50/29 28/48/28 33/65/33 
f 34/67/34 35/68/35 30/54/30 
f 30/54/30 29/53/29 34/67/34 
f 35/68/35 36/69/36 31/56/31 
f 31/56/31 30/54/30 35/68/35 
f 36/69/36 32/64/32 27/47/27 
f 27/47/27 31/56/31 36/69/36 
# 0 polygons - 65 triangles

