# 3ds Max Wavefront OBJ Exporter v0.97b - (c)2007 guruware
# File Created: 08.08.2012 16:15:19

#
# object MESH_tree_7
#

v  0.3069 53.1591 -0.4581
v  -7.3931 50.2688 0.6270
v  0.2712 48.9415 7.5098
v  7.9674 49.7277 3.7779
v  4.7887 51.7940 -5.5843
v  -4.6289 50.7755 -7.7854
v  -15.2519 32.5704 2.1960
v  0.3002 31.9614 15.5867
v  -7.2570 32.4248 -12.0534
v  -0.7427 21.2788 13.5297
v  -12.9691 22.4486 2.9763
v  7.8097 21.8769 4.7989
v  5.6531 23.7033 -6.5383
v  -6.9048 22.5959 -7.7136
v  -0.1257 15.3639 2.6328
v  -2.5429 15.3639 0.6940
v  2.4652 15.3639 0.9330
v  1.6492 15.3639 -2.0563
v  -1.4460 15.3639 -2.2041
v  -0.1707 -0.0000 3.5753
v  -3.4533 -0.0000 0.9424
v  3.3477 -0.0000 1.2671
v  2.2396 -0.0000 -2.7924
v  -1.9636 -0.0000 -2.9931
v  -13.0113 44.5383 2.3873
v  -7.9791 44.3870 -11.1711
v  -0.3852 43.6859 13.3778
v  11.7873 43.8905 6.1359
v  12.7001 32.0143 4.8745
v  7.4279 45.3542 -9.1091
v  10.1223 32.8296 -12.0823
v  -0.1069 7.6820 2.2380
v  -2.1616 7.6820 0.5899
v  2.0955 7.6820 0.7931
v  1.4019 7.6820 -1.7480
v  -1.2291 7.6820 -1.8736
# 36 vertices

vn -0.0264 0.9912 0.1296
vn -0.5479 0.8137 0.1943
vn -0.0326 0.7849 0.6188
vn -0.0264 0.9912 0.1296
vn -0.0326 0.7849 0.6188
vn 0.5979 0.7381 0.3125
vn -0.0264 0.9912 0.1296
vn 0.5979 0.7381 0.3125
vn 0.4331 0.7882 -0.4371
vn -0.0264 0.9912 0.1296
vn 0.4331 0.7882 -0.4371
vn -0.2931 0.7549 -0.5868
vn -0.0264 0.9912 0.1296
vn -0.2931 0.7549 -0.5868
vn -0.5479 0.8137 0.1943
vn -0.0912 0.4339 0.8963
vn -0.0326 0.7849 0.6188
vn -0.5479 0.8137 0.1943
vn -0.5479 0.8137 0.1943
vn -0.8861 0.4043 0.2265
vn -0.0912 0.4339 0.8963
vn 0.8629 0.3412 0.3727
vn 0.5979 0.7381 0.3125
vn -0.0326 0.7849 0.6188
vn -0.0326 0.7849 0.6188
vn -0.0912 0.4339 0.8963
vn 0.8629 0.3412 0.3727
vn 0.6116 0.4100 -0.6767
vn 0.4331 0.7882 -0.4371
vn 0.5979 0.7381 0.3125
vn 0.5979 0.7381 0.3125
vn 0.8629 0.3412 0.3727
vn 0.6116 0.4100 -0.6767
vn -0.5405 0.3124 -0.7812
vn -0.2931 0.7549 -0.5868
vn 0.4331 0.7882 -0.4371
vn 0.4331 0.7882 -0.4371
vn 0.6116 0.4100 -0.6767
vn -0.5405 0.3124 -0.7812
vn -0.8861 0.4043 0.2265
vn -0.5479 0.8137 0.1943
vn -0.2931 0.7549 -0.5868
vn -0.2931 0.7549 -0.5868
vn -0.5405 0.3124 -0.7812
vn -0.8861 0.4043 0.2265
vn -0.9895 -0.0142 0.1438
vn -0.4720 -0.1660 -0.8658
vn -0.4292 -0.5273 -0.7333
vn -0.4292 -0.5273 -0.7333
vn -0.8534 -0.4919 0.1724
vn -0.9895 -0.0142 0.1438
vn 0.0054 -0.0334 0.9994
vn -0.9895 -0.0142 0.1438
vn -0.8534 -0.4919 0.1724
vn -0.8534 -0.4919 0.1724
vn -0.0206 -0.5357 0.8442
vn 0.0054 -0.0334 0.9994
vn 0.9478 -0.1571 0.2774
vn 0.0054 -0.0334 0.9994
vn -0.0206 -0.5357 0.8442
vn -0.0206 -0.5357 0.8442
vn 0.7890 -0.5603 0.2522
vn 0.9478 -0.1571 0.2774
vn 0.6512 -0.1483 -0.7443
vn 0.9478 -0.1571 0.2774
vn 0.7890 -0.5603 0.2522
vn 0.7890 -0.5603 0.2522
vn 0.5101 -0.5876 -0.6281
vn 0.6512 -0.1483 -0.7443
vn -0.4720 -0.1660 -0.8658
vn 0.6512 -0.1483 -0.7443
vn 0.5101 -0.5876 -0.6281
vn 0.5101 -0.5876 -0.6281
vn -0.4292 -0.5273 -0.7333
vn -0.4720 -0.1660 -0.8658
vn -0.8534 -0.4919 0.1724
vn -0.7998 -0.5669 0.1976
vn -0.0081 -0.5910 0.8066
vn -0.0081 -0.5910 0.8066
vn -0.0206 -0.5357 0.8442
vn -0.8534 -0.4919 0.1724
vn 0.7890 -0.5603 0.2522
vn -0.0206 -0.5357 0.8442
vn -0.0081 -0.5910 0.8066
vn -0.0081 -0.5910 0.8066
vn 0.8557 -0.4452 0.2637
vn 0.7890 -0.5603 0.2522
vn 0.5101 -0.5876 -0.6281
vn 0.7890 -0.5603 0.2522
vn 0.8557 -0.4452 0.2637
vn 0.8557 -0.4452 0.2637
vn 0.5871 -0.3867 -0.7112
vn 0.5101 -0.5876 -0.6281
vn -0.4292 -0.5273 -0.7333
vn 0.5101 -0.5876 -0.6281
vn 0.5871 -0.3867 -0.7112
vn 0.5871 -0.3867 -0.7112
vn -0.4484 -0.4757 -0.7567
vn -0.4292 -0.5273 -0.7333
vn -0.4292 -0.5273 -0.7333
vn -0.4484 -0.4757 -0.7567
vn -0.7998 -0.5669 0.1976
vn -0.7998 -0.5669 0.1976
vn -0.8534 -0.4919 0.1724
vn -0.4292 -0.5273 -0.7333
vn -0.7998 -0.5669 0.1976
vn -0.9628 0.0632 0.2628
vn -0.0476 0.0632 0.9969
vn -0.0476 0.0632 0.9969
vn -0.0081 -0.5910 0.8066
vn -0.7998 -0.5669 0.1976
vn -0.0081 -0.5910 0.8066
vn -0.0476 0.0632 0.9969
vn 0.9334 0.0632 0.3533
vn 0.9334 0.0632 0.3533
vn 0.8557 -0.4452 0.2637
vn -0.0081 -0.5910 0.8066
vn 0.8557 -0.4452 0.2637
vn 0.9334 0.0632 0.3533
vn 0.6244 0.0632 -0.7785
vn 0.6244 0.0632 -0.7785
vn 0.5871 -0.3867 -0.7112
vn 0.8557 -0.4452 0.2637
vn 0.5871 -0.3867 -0.7112
vn 0.6244 0.0632 -0.7785
vn -0.5474 0.0632 -0.8344
vn -0.5474 0.0632 -0.8344
vn -0.4484 -0.4757 -0.7567
vn 0.5871 -0.3867 -0.7112
vn -0.4484 -0.4757 -0.7567
vn -0.5474 0.0632 -0.8344
vn -0.9628 0.0632 0.2628
vn -0.9628 0.0632 0.2628
vn -0.7998 -0.5669 0.1976
vn -0.4484 -0.4757 -0.7567
vn -0.8861 0.4043 0.2265
vn -0.5405 0.3124 -0.7812
vn -0.4720 -0.1660 -0.8658
vn -0.4720 -0.1660 -0.8658
vn -0.9895 -0.0142 0.1438
vn -0.8861 0.4043 0.2265
vn -0.0912 0.4339 0.8963
vn -0.8861 0.4043 0.2265
vn -0.9895 -0.0142 0.1438
vn -0.9895 -0.0142 0.1438
vn 0.0054 -0.0334 0.9994
vn -0.0912 0.4339 0.8963
vn 0.8629 0.3412 0.3727
vn -0.0912 0.4339 0.8963
vn 0.0054 -0.0334 0.9994
vn 0.0054 -0.0334 0.9994
vn 0.9478 -0.1571 0.2774
vn 0.8629 0.3412 0.3727
vn 0.6116 0.4100 -0.6767
vn 0.8629 0.3412 0.3727
vn 0.9478 -0.1571 0.2774
vn 0.9478 -0.1571 0.2774
vn 0.6512 -0.1483 -0.7443
vn 0.6116 0.4100 -0.6767
vn -0.5405 0.3124 -0.7812
vn 0.6116 0.4100 -0.6767
vn 0.6512 -0.1483 -0.7443
vn 0.6512 -0.1483 -0.7443
vn -0.4720 -0.1660 -0.8658
vn -0.5405 0.3124 -0.7812
vn -0.9504 0.1717 0.2594
vn -0.0470 0.1717 0.9840
vn -0.0476 0.0632 0.9969
vn -0.0476 0.0632 0.9969
vn -0.9628 0.0632 0.2628
vn -0.9504 0.1717 0.2594
vn -0.0470 0.1717 0.9840
vn 0.9214 0.1717 0.3487
vn 0.9334 0.0632 0.3533
vn 0.9334 0.0632 0.3533
vn -0.0476 0.0632 0.9969
vn -0.0470 0.1717 0.9840
vn 0.9214 0.1717 0.3487
vn 0.6164 0.1717 -0.7685
vn 0.6244 0.0632 -0.7785
vn 0.6244 0.0632 -0.7785
vn 0.9334 0.0632 0.3533
vn 0.9214 0.1717 0.3487
vn 0.6164 0.1717 -0.7685
vn -0.5404 0.1717 -0.8237
vn -0.5474 0.0632 -0.8344
vn -0.5474 0.0632 -0.8344
vn 0.6244 0.0632 -0.7785
vn 0.6164 0.1717 -0.7685
vn -0.5404 0.1717 -0.8237
vn -0.9504 0.1717 0.2594
vn -0.9628 0.0632 0.2628
vn -0.9628 0.0632 0.2628
vn -0.5474 0.0632 -0.8344
vn -0.5404 0.1717 -0.8237
# 195 vertex normals

vt 0.9000 0.9961 0.0000
vt 0.8008 0.8613 0.0000
vt 1.0000 0.8613 0.0000
vt 0.1003 0.9961 0.0000
vt 0.0000 0.8613 0.0000
vt 0.2997 0.9961 0.0000
vt 0.2012 0.8613 0.0000
vt 0.5002 0.9961 0.0000
vt 0.4004 0.8613 0.0000
vt 0.7001 0.9961 0.0000
vt 0.5996 0.8613 0.0000
vt 0.5996 0.7578 0.0000
vt 0.8008 0.7578 0.0000
vt 1.0000 0.7578 0.0000
vt 0.8000 0.5848 0.0000
vt 0.0000 0.7578 0.0000
vt 0.2012 0.7578 0.0000
vt 0.6001 0.5848 0.0000
vt 0.4004 0.7578 0.0000
vt 0.4002 0.5848 0.0000
vt 0.2003 0.5848 0.0000
vt 0.9999 0.5848 0.0000
vt 0.0004 0.5848 0.0000
vt 0.9258 0.5020 0.0000
vt 0.0742 0.5020 0.0000
vt 0.8750 0.5020 0.0000
vt 0.7246 0.5020 0.0000
vt 0.1250 0.5020 0.0000
vt 0.2754 0.5020 0.0000
vt 0.3262 0.5020 0.0000
vt 0.4746 0.5020 0.0000
vt 0.5254 0.5020 0.0000
vt 0.6738 0.5020 0.0000
vt 0.1465 0.4980 0.0000
vt 0.1094 0.4980 0.0000
vt 0.1836 0.4980 0.0000
vt 0.0352 0.4980 0.0000
vt 0.0020 0.4980 0.0000
vt 0.0742 0.4980 0.0000
vt 0.1094 0.3047 0.0000
vt 0.1484 0.3047 0.0000
vt 0.1836 0.3047 0.0000
vt 0.0020 0.3047 0.0000
vt 0.0371 0.3047 0.0000
vt 0.0742 0.3047 0.0000
vt 0.8008 0.7461 0.0000
vt 1.0000 0.7461 0.0000
vt 0.0000 0.7461 0.0000
vt 0.2012 0.7461 0.0000
vt 0.4004 0.7461 0.0000
vt 0.5996 0.7461 0.0000
vt 0.8008 0.7461 0.0000
vt 0.5996 0.7461 0.0000
vt 0.5996 0.5684 0.0000
vt 0.8008 0.5684 0.0000
vt 1.0000 0.7461 0.0000
vt 1.0000 0.5684 0.0000
vt 0.2012 0.7461 0.0000
vt 0.0000 0.7461 0.0000
vt 0.0000 0.5684 0.0000
vt 0.2012 0.5684 0.0000
vt 0.4004 0.7461 0.0000
vt 0.4004 0.5684 0.0000
vt 0.8008 0.5840 0.0000
vt 0.5996 0.5840 0.0000
vt 0.4004 0.5840 0.0000
vt 0.2012 0.5840 0.0000
vt 1.0000 0.5840 0.0000
vt 0.0000 0.5840 0.0000
vt 0.1475 0.4014 0.0000
vt 0.1094 0.4014 0.0000
vt 0.0020 0.4014 0.0000
vt 0.1836 0.4014 0.0000
vt 0.0361 0.4014 0.0000
vt 0.0742 0.4014 0.0000
# 75 texture coords

g MESH_tree_7
s 1
f 1/1/1 2/2/2 3/3/3 
f 1/4/4 3/5/5 4/7/6 
f 1/6/7 4/7/8 5/9/9 
f 1/8/10 5/9/11 6/11/12 
f 1/10/13 6/11/14 2/2/15 
f 27/47/16 3/3/17 2/2/18 
f 2/2/19 25/46/20 27/47/21 
f 28/49/22 4/7/23 3/5/24 
f 3/5/25 27/48/26 28/49/27 
f 30/50/28 5/9/29 4/7/30 
f 4/7/31 28/49/32 30/50/33 
f 26/51/34 6/11/35 5/9/36 
f 5/9/37 30/50/38 26/51/39 
f 25/46/40 2/2/41 6/11/42 
f 6/11/43 26/51/44 25/46/45 
f 7/13/46 9/12/47 14/65/48 
f 14/65/49 11/64/50 7/13/51 
f 8/14/52 7/13/53 11/64/54 
f 11/64/55 10/68/56 8/14/57 
f 29/17/58 8/16/59 10/69/60 
f 10/69/61 12/67/62 29/17/63 
f 31/19/64 29/17/65 12/67/66 
f 12/67/67 13/66/68 31/19/69 
f 9/12/70 31/19/71 13/66/72 
f 13/66/73 14/65/74 9/12/75 
f 11/15/76 16/26/77 15/24/78 
f 15/24/79 10/22/80 11/15/81 
f 12/21/82 10/23/83 15/25/84 
f 15/25/85 17/28/86 12/21/87 
f 13/20/88 12/21/89 17/29/90 
f 17/29/91 18/30/92 13/20/93 
f 14/18/94 13/20/95 18/31/96 
f 18/31/97 19/32/98 14/18/99 
f 14/18/100 19/33/101 16/27/102 
f 16/27/103 11/15/104 14/18/105 
f 16/35/106 33/71/107 32/70/108 
f 32/70/109 15/34/110 16/35/111 
f 15/34/112 32/70/113 34/73/114 
f 34/73/115 17/36/116 15/34/117 
f 17/38/118 34/72/119 35/74/120 
f 35/74/121 18/37/122 17/38/123 
f 18/37/124 35/74/125 36/75/126 
f 36/75/127 19/39/128 18/37/129 
f 19/39/130 36/75/131 33/71/132 
f 33/71/133 16/35/134 19/39/135 
f 25/52/136 26/53/137 9/54/138 
f 9/54/139 7/55/140 25/52/141 
f 27/56/142 25/52/143 7/55/144 
f 7/55/145 8/57/146 27/56/147 
f 28/58/148 27/59/149 8/60/150 
f 8/60/151 29/61/152 28/58/153 
f 30/62/154 28/58/155 29/61/156 
f 29/61/157 31/63/158 30/62/159 
f 26/53/160 30/62/161 31/63/162 
f 31/63/163 9/54/164 26/53/165 
f 21/40/166 20/41/167 32/70/168 
f 32/70/169 33/71/170 21/40/171 
f 20/41/172 22/42/173 34/73/174 
f 34/73/175 32/70/176 20/41/177 
f 22/43/178 23/44/179 35/74/180 
f 35/74/181 34/72/182 22/43/183 
f 23/44/184 24/45/185 36/75/186 
f 36/75/187 35/74/188 23/44/189 
f 24/45/190 21/40/191 33/71/192 
f 33/71/193 36/75/194 24/45/195 
# 65 faces

