# 3ds Max Wavefront OBJ Exporter v0.97b - (c)2007 guruware
# File Created: 08.08.2012 16:13:33

#
# object MESH_tree_9
#

v  0.8004 48.2392 -0.7871
v  -7.5897 42.9390 2.7936
v  -0.8301 43.4899 7.6628
v  7.4958 43.1069 3.6726
v  5.9469 45.3917 -7.2061
v  -4.1994 44.9016 -7.2858
v  -13.9969 31.3720 3.4039
v  -2.4730 31.8856 16.4209
v  -8.9423 32.5430 -12.3024
v  -0.8683 23.2463 13.0640
v  -11.1587 22.7699 2.7003
v  12.2377 22.5996 5.1786
v  8.7372 24.4019 -11.1164
v  -7.1482 24.8050 -11.9133
v  0.2648 13.8209 3.9621
v  -2.6933 13.8209 0.0903
v  4.7878 13.8209 1.8367
v  3.5530 13.8209 -3.1473
v  -0.5705 13.8209 -3.6755
v  -0.1901 -0.0000 3.9812
v  -3.8452 -0.0000 1.0494
v  3.7277 -0.0000 1.4109
v  2.4938 -0.0000 -3.1093
v  -2.1865 -0.0000 -3.3327
v  -12.5120 38.9209 3.8027
v  -7.5721 40.9057 -10.4068
v  -2.9078 39.2031 13.4230
v  10.9331 38.9011 6.8597
v  13.8564 31.5546 7.7971
v  7.1348 40.5557 -9.1520
v  8.8026 32.0162 -10.7266
v  -0.3418 6.4365 2.5006
v  -2.8962 6.4365 0.4517
v  2.3962 6.4365 0.7044
v  1.5338 6.4365 -2.4546
v  -1.7370 6.4365 -2.6108
v  -5.4689 44.3114 6.5042
v  3.3822 43.5666 7.0764
v  9.3762 43.3123 -1.4964
v  0.4657 45.7940 -9.5018
v  -5.5929 43.4034 -2.7114
v  -9.6548 32.5428 12.9210
v  7.2117 31.2479 15.6173
v  0.5229 33.8766 -15.3171
v  -11.9356 29.5566 -3.7672
v  -6.7168 23.9214 8.7303
v  6.9411 21.6851 11.6372
v  12.6507 21.5435 -4.3587
v  1.0003 26.3524 -13.8947
v  -10.0582 21.0222 -3.4954
v  -10.6892 37.4914 -4.0390
v  -8.8619 39.6784 10.6954
v  4.3242 39.4647 11.8829
v  12.2924 38.1646 -2.2635
v  13.6549 30.5371 -3.2315
v  0.0018 42.2699 -13.0815
# 56 vertices

vn -0.0101 0.9962 0.0867
vn -0.3666 0.8426 0.3945
vn 0.0160 0.8161 0.5777
vn -0.0101 0.9962 0.0867
vn 0.2729 0.8074 0.5231
vn 0.5762 0.7534 0.3168
vn -0.0101 0.9962 0.0867
vn 0.7548 0.6542 0.0484
vn 0.5446 0.7311 -0.4110
vn -0.0101 0.9962 0.0867
vn -0.0398 0.8427 -0.5369
vn -0.5381 0.8049 -0.2501
vn -0.0101 0.9962 0.0867
vn -0.6747 0.7344 -0.0732
vn -0.6386 0.7686 -0.0380
vn -0.6386 0.7686 -0.0380
vn -0.8718 0.4873 0.0498
vn -0.5796 0.5560 0.5958
vn -0.5796 0.5560 0.5958
vn -0.3666 0.8426 0.3945
vn -0.6386 0.7686 -0.0380
vn 0.0160 0.8161 0.5777
vn -0.1131 0.5881 0.8008
vn 0.3172 0.6300 0.7089
vn 0.3172 0.6300 0.7089
vn 0.2729 0.8074 0.5231
vn 0.0160 0.8161 0.5777
vn 0.5762 0.7534 0.3168
vn 0.7536 0.5508 0.3588
vn 0.9258 0.3400 -0.1655
vn 0.9258 0.3400 -0.1655
vn 0.7548 0.6542 0.0484
vn 0.5762 0.7534 0.3168
vn 0.5446 0.7311 -0.4110
vn 0.6746 0.3303 -0.6602
vn 0.0294 0.4911 -0.8706
vn 0.0294 0.4911 -0.8706
vn -0.0398 0.8427 -0.5369
vn 0.5446 0.7311 -0.4110
vn -0.5381 0.8049 -0.2501
vn -0.6772 0.5061 -0.5342
vn -0.8905 0.3707 -0.2636
vn -0.8905 0.3707 -0.2636
vn -0.6747 0.7344 -0.0732
vn -0.5381 0.8049 -0.2501
vn -0.9533 -0.0712 -0.2934
vn -0.8075 -0.5324 -0.2540
vn -0.8284 -0.5071 0.2380
vn -0.8284 -0.5071 0.2380
vn -0.9956 -0.0533 0.0767
vn -0.9533 -0.0712 -0.2934
vn -0.6888 -0.0566 0.7227
vn -0.5753 -0.5689 0.5877
vn -0.2278 -0.5449 0.8069
vn -0.2278 -0.5449 0.8069
vn -0.1837 -0.0111 0.9829
vn -0.6888 -0.0566 0.7227
vn 0.4467 0.0324 0.8941
vn 0.4191 -0.5503 0.7221
vn 0.8520 -0.4344 0.2921
vn 0.8520 -0.4344 0.2921
vn 0.9341 0.0688 0.3502
vn 0.4467 0.0324 0.8941
vn 0.9661 0.0704 -0.2483
vn 0.8505 -0.4443 -0.2813
vn 0.5437 -0.3346 -0.7697
vn 0.5437 -0.3346 -0.7697
vn 0.6962 0.1433 -0.7034
vn 0.9661 0.0704 -0.2483
vn 0.0874 0.0924 -0.9919
vn 0.0501 -0.3768 -0.9249
vn -0.5228 -0.4181 -0.7429
vn -0.5228 -0.4181 -0.7429
vn -0.7102 0.0498 -0.7022
vn 0.0874 0.0924 -0.9919
vn -0.2202 -0.5549 0.8023
vn -0.5753 -0.5689 0.5877
vn -0.8844 -0.4553 0.1031
vn 0.6985 -0.6423 0.3154
vn 0.4191 -0.5503 0.7221
vn -0.2202 -0.5549 0.8023
vn 0.5230 -0.5712 -0.6326
vn 0.8505 -0.4443 -0.2813
vn 0.6985 -0.6423 0.3154
vn -0.3329 -0.4847 -0.8088
vn 0.0501 -0.3768 -0.9249
vn 0.5230 -0.5712 -0.6326
vn -0.8844 -0.4553 0.1031
vn -0.8075 -0.5324 -0.2540
vn -0.3329 -0.4847 -0.8088
vn -0.2202 -0.5549 0.8023
vn -0.8844 -0.4553 0.1031
vn -0.9685 0.0725 0.2381
vn -0.9685 0.0725 0.2381
vn -0.0878 0.0026 0.9961
vn -0.2202 -0.5549 0.8023
vn 0.6985 -0.6423 0.3154
vn -0.2202 -0.5549 0.8023
vn -0.0878 0.0026 0.9961
vn -0.0878 0.0026 0.9961
vn 0.9364 -0.0681 0.3442
vn 0.6985 -0.6423 0.3154
vn 0.5230 -0.5712 -0.6326
vn 0.6985 -0.6423 0.3154
vn 0.9364 -0.0681 0.3442
vn 0.9364 -0.0681 0.3442
vn 0.5971 -0.0450 -0.8009
vn 0.5230 -0.5712 -0.6326
vn -0.3329 -0.4847 -0.8088
vn 0.5230 -0.5712 -0.6326
vn 0.5971 -0.0450 -0.8009
vn 0.5971 -0.0450 -0.8009
vn -0.5704 0.0351 -0.8206
vn -0.3329 -0.4847 -0.8088
vn -0.8844 -0.4553 0.1031
vn -0.3329 -0.4847 -0.8088
vn -0.5704 0.0351 -0.8206
vn -0.5704 0.0351 -0.8206
vn -0.9685 0.0725 0.2381
vn -0.8844 -0.4553 0.1031
vn -0.8718 0.4873 0.0498
vn -0.8905 0.3707 -0.2636
vn -0.9533 -0.0712 -0.2934
vn -0.9533 -0.0712 -0.2934
vn -0.9956 -0.0533 0.0767
vn -0.8718 0.4873 0.0498
vn -0.1131 0.5881 0.8008
vn -0.5796 0.5560 0.5958
vn -0.6888 -0.0566 0.7227
vn -0.6888 -0.0566 0.7227
vn -0.1837 -0.0111 0.9829
vn -0.1131 0.5881 0.8008
vn 0.7536 0.5508 0.3588
vn 0.3172 0.6300 0.7089
vn 0.4467 0.0324 0.8941
vn 0.4467 0.0324 0.8941
vn 0.9341 0.0688 0.3502
vn 0.7536 0.5508 0.3588
vn 0.6746 0.3303 -0.6602
vn 0.9258 0.3400 -0.1655
vn 0.9661 0.0704 -0.2483
vn 0.9661 0.0704 -0.2483
vn 0.6962 0.1433 -0.7034
vn 0.6746 0.3303 -0.6602
vn -0.6772 0.5061 -0.5342
vn 0.0294 0.4911 -0.8706
vn 0.0874 0.0924 -0.9919
vn 0.0874 0.0924 -0.9919
vn -0.7102 0.0498 -0.7022
vn -0.6772 0.5061 -0.5342
vn -0.9685 0.0725 0.2381
vn -0.9469 0.1652 0.2760
vn -0.0356 0.2232 0.9741
vn -0.0356 0.2232 0.9741
vn -0.0878 0.0026 0.9961
vn -0.9685 0.0725 0.2381
vn -0.0878 0.0026 0.9961
vn -0.0356 0.2232 0.9741
vn 0.9076 0.2266 0.3535
vn 0.9076 0.2266 0.3535
vn 0.9364 -0.0681 0.3442
vn -0.0878 0.0026 0.9961
vn 0.9364 -0.0681 0.3442
vn 0.9076 0.2266 0.3535
vn 0.6300 0.1710 -0.7575
vn 0.6300 0.1710 -0.7575
vn 0.5971 -0.0450 -0.8009
vn 0.9364 -0.0681 0.3442
vn 0.5971 -0.0450 -0.8009
vn 0.6300 0.1710 -0.7575
vn -0.5429 0.1310 -0.8295
vn -0.5429 0.1310 -0.8295
vn -0.5704 0.0351 -0.8206
vn 0.5971 -0.0450 -0.8009
vn -0.5704 0.0351 -0.8206
vn -0.5429 0.1310 -0.8295
vn -0.9469 0.1652 0.2760
vn -0.9469 0.1652 0.2760
vn -0.9685 0.0725 0.2381
vn -0.5704 0.0351 -0.8206
vn -0.5796 0.5560 0.5958
vn -0.1131 0.5881 0.8008
vn 0.0160 0.8161 0.5777
vn 0.0160 0.8161 0.5777
vn -0.3666 0.8426 0.3945
vn -0.5796 0.5560 0.5958
vn 0.3172 0.6300 0.7089
vn 0.7536 0.5508 0.3588
vn 0.5762 0.7534 0.3168
vn 0.5762 0.7534 0.3168
vn 0.2729 0.8074 0.5231
vn 0.3172 0.6300 0.7089
vn 0.9258 0.3400 -0.1655
vn 0.6746 0.3303 -0.6602
vn 0.5446 0.7311 -0.4110
vn 0.5446 0.7311 -0.4110
vn 0.7548 0.6542 0.0484
vn 0.9258 0.3400 -0.1655
vn 0.0294 0.4911 -0.8706
vn -0.6772 0.5061 -0.5342
vn -0.5381 0.8049 -0.2501
vn -0.5381 0.8049 -0.2501
vn -0.0398 0.8427 -0.5369
vn 0.0294 0.4911 -0.8706
vn -0.8905 0.3707 -0.2636
vn -0.8718 0.4873 0.0498
vn -0.6386 0.7686 -0.0380
vn -0.6386 0.7686 -0.0380
vn -0.6747 0.7344 -0.0732
vn -0.8905 0.3707 -0.2636
vn -0.9533 -0.0712 -0.2934
vn -0.7102 0.0498 -0.7022
vn -0.5228 -0.4181 -0.7429
vn -0.5228 -0.4181 -0.7429
vn -0.8075 -0.5324 -0.2540
vn -0.9533 -0.0712 -0.2934
vn -0.6888 -0.0566 0.7227
vn -0.9956 -0.0533 0.0767
vn -0.8284 -0.5071 0.2380
vn -0.8284 -0.5071 0.2380
vn -0.5753 -0.5689 0.5877
vn -0.6888 -0.0566 0.7227
vn 0.4467 0.0324 0.8941
vn -0.1837 -0.0111 0.9829
vn -0.2278 -0.5449 0.8069
vn -0.2278 -0.5449 0.8069
vn 0.4191 -0.5503 0.7221
vn 0.4467 0.0324 0.8941
vn 0.9661 0.0704 -0.2483
vn 0.9341 0.0688 0.3502
vn 0.8520 -0.4344 0.2921
vn 0.8520 -0.4344 0.2921
vn 0.8505 -0.4443 -0.2813
vn 0.9661 0.0704 -0.2483
vn 0.0874 0.0924 -0.9919
vn 0.6962 0.1433 -0.7034
vn 0.5437 -0.3346 -0.7697
vn 0.5437 -0.3346 -0.7697
vn 0.0501 -0.3768 -0.9249
vn 0.0874 0.0924 -0.9919
vn -0.6772 0.5061 -0.5342
vn -0.7102 0.0498 -0.7022
vn -0.9533 -0.0712 -0.2934
vn -0.9533 -0.0712 -0.2934
vn -0.8905 0.3707 -0.2636
vn -0.6772 0.5061 -0.5342
vn -0.8718 0.4873 0.0498
vn -0.9956 -0.0533 0.0767
vn -0.6888 -0.0566 0.7227
vn -0.6888 -0.0566 0.7227
vn -0.5796 0.5560 0.5958
vn -0.8718 0.4873 0.0498
vn -0.1131 0.5881 0.8008
vn -0.1837 -0.0111 0.9829
vn 0.4467 0.0324 0.8941
vn 0.4467 0.0324 0.8941
vn 0.3172 0.6300 0.7089
vn -0.1131 0.5881 0.8008
vn 0.7536 0.5508 0.3588
vn 0.9341 0.0688 0.3502
vn 0.9661 0.0704 -0.2483
vn 0.9661 0.0704 -0.2483
vn 0.9258 0.3400 -0.1655
vn 0.7536 0.5508 0.3588
vn 0.6746 0.3303 -0.6602
vn 0.6962 0.1433 -0.7034
vn 0.0874 0.0924 -0.9919
vn 0.0874 0.0924 -0.9919
vn 0.0294 0.4911 -0.8706
vn 0.6746 0.3303 -0.6602
vn -0.0101 0.9962 0.0867
vn -0.5381 0.8049 -0.2501
vn -0.6747 0.7344 -0.0732
vn -0.0101 0.9962 0.0867
vn -0.6386 0.7686 -0.0380
vn -0.3666 0.8426 0.3945
vn -0.0101 0.9962 0.0867
vn 0.0160 0.8161 0.5777
vn 0.2729 0.8074 0.5231
vn -0.0101 0.9962 0.0867
vn 0.5762 0.7534 0.3168
vn 0.7548 0.6542 0.0484
vn -0.0101 0.9962 0.0867
vn 0.5446 0.7311 -0.4110
vn -0.0398 0.8427 -0.5369
vn -0.8075 -0.5324 -0.2540
vn -0.5228 -0.4181 -0.7429
vn -0.3329 -0.4847 -0.8088
vn -0.8844 -0.4553 0.1031
vn -0.8284 -0.5071 0.2380
vn -0.8075 -0.5324 -0.2540
vn -0.5753 -0.5689 0.5877
vn -0.8284 -0.5071 0.2380
vn -0.8844 -0.4553 0.1031
vn -0.2202 -0.5549 0.8023
vn -0.2278 -0.5449 0.8069
vn -0.5753 -0.5689 0.5877
vn 0.4191 -0.5503 0.7221
vn -0.2278 -0.5449 0.8069
vn -0.2202 -0.5549 0.8023
vn 0.6985 -0.6423 0.3154
vn 0.8520 -0.4344 0.2921
vn 0.4191 -0.5503 0.7221
vn 0.8505 -0.4443 -0.2813
vn 0.8520 -0.4344 0.2921
vn 0.6985 -0.6423 0.3154
vn 0.5230 -0.5712 -0.6326
vn 0.5437 -0.3346 -0.7697
vn 0.8505 -0.4443 -0.2813
vn 0.0501 -0.3768 -0.9249
vn 0.5437 -0.3346 -0.7697
vn 0.5230 -0.5712 -0.6326
vn -0.3329 -0.4847 -0.8088
vn -0.5228 -0.4181 -0.7429
vn 0.0501 -0.3768 -0.9249
# 315 vertex normals

vt 0.9000 0.9961 0.0000
vt 0.8008 0.8613 0.0000
vt 1.0000 0.8613 0.0000
vt 0.1003 0.9961 0.0000
vt 0.0000 0.8613 0.0000
vt 0.2997 0.9961 0.0000
vt 0.2012 0.8613 0.0000
vt 0.5002 0.9961 0.0000
vt 0.4004 0.8613 0.0000
vt 0.7001 0.9961 0.0000
vt 0.5996 0.8613 0.0000
vt 0.5996 0.7578 0.0000
vt 0.8008 0.7578 0.0000
vt 1.0000 0.7578 0.0000
vt 0.8000 0.5848 0.0000
vt 0.0000 0.7578 0.0000
vt 0.2012 0.7578 0.0000
vt 0.6001 0.5848 0.0000
vt 0.4004 0.7578 0.0000
vt 0.4002 0.5848 0.0000
vt 0.2003 0.5848 0.0000
vt 0.9999 0.5848 0.0000
vt 0.0004 0.5848 0.0000
vt 0.9258 0.5020 0.0000
vt 0.0742 0.5020 0.0000
vt 0.8750 0.5020 0.0000
vt 0.7246 0.5020 0.0000
vt 0.1250 0.5020 0.0000
vt 0.2754 0.5020 0.0000
vt 0.3262 0.5020 0.0000
vt 0.4746 0.5020 0.0000
vt 0.5254 0.5020 0.0000
vt 0.6738 0.5020 0.0000
vt 0.1465 0.4980 0.0000
vt 0.1094 0.4980 0.0000
vt 0.1836 0.4980 0.0000
vt 0.0352 0.4980 0.0000
vt 0.0020 0.4980 0.0000
vt 0.0742 0.4980 0.0000
vt 0.1094 0.3047 0.0000
vt 0.1484 0.3047 0.0000
vt 0.1836 0.3047 0.0000
vt 0.0020 0.3047 0.0000
vt 0.0371 0.3047 0.0000
vt 0.0742 0.3047 0.0000
vt 0.8008 0.7461 0.0000
vt 1.0000 0.7461 0.0000
vt 0.0000 0.7461 0.0000
vt 0.2012 0.7461 0.0000
vt 0.4004 0.7461 0.0000
vt 0.5996 0.7461 0.0000
vt 0.8008 0.7461 0.0000
vt 0.5996 0.7461 0.0000
vt 0.5996 0.5684 0.0000
vt 0.8008 0.5684 0.0000
vt 1.0000 0.7461 0.0000
vt 1.0000 0.5684 0.0000
vt 0.2012 0.7461 0.0000
vt 0.0000 0.7461 0.0000
vt 0.0000 0.5684 0.0000
vt 0.2012 0.5684 0.0000
vt 0.4004 0.7461 0.0000
vt 0.4004 0.5684 0.0000
vt 0.8008 0.5840 0.0000
vt 0.5996 0.5840 0.0000
vt 0.4004 0.5840 0.0000
vt 0.2012 0.5840 0.0000
vt 1.0000 0.5840 0.0000
vt 0.0000 0.5840 0.0000
vt 0.1475 0.4014 0.0000
vt 0.1094 0.4014 0.0000
vt 0.0020 0.4014 0.0000
vt 0.1836 0.4014 0.0000
vt 0.0361 0.4014 0.0000
vt 0.0742 0.4014 0.0000
vt 0.9004 0.8613 0.0000
vt 0.1006 0.8613 0.0000
vt 0.3008 0.8613 0.0000
vt 0.5000 0.8613 0.0000
vt 0.7002 0.8613 0.0000
vt 0.9004 0.7578 0.0000
vt 0.9004 0.5684 0.0000
vt 0.1006 0.7578 0.0000
vt 0.1006 0.5684 0.0000
vt 0.5000 0.7578 0.0000
vt 0.5000 0.5684 0.0000
vt 0.7002 0.7578 0.0000
vt 0.7002 0.5684 0.0000
vt 0.9004 0.5840 0.0000
vt 0.9000 0.5848 0.0000
vt 0.1006 0.5840 0.0000
vt 0.1003 0.5848 0.0000
vt 0.3008 0.5840 0.0000
vt 0.3002 0.5848 0.0000
vt 0.5000 0.5840 0.0000
vt 0.5002 0.5848 0.0000
vt 0.7001 0.5848 0.0000
vt 0.7002 0.5840 0.0000
vt 0.7002 0.7461 0.0000
vt 0.7002 0.7461 0.0000
vt 0.9004 0.7461 0.0000
vt 0.9004 0.7461 0.0000
vt 0.1006 0.7461 0.0000
vt 0.1006 0.7461 0.0000
vt 0.3008 0.7461 0.0000
vt 0.3008 0.7461 0.0000
vt 0.3008 0.5684 0.0000
vt 0.3008 0.7578 0.0000
vt 0.5000 0.7461 0.0000
vt 0.5000 0.7461 0.0000
# 110 texture coords

g MESH_tree_9
s 1
f 1/1/1 37/76/2 3/3/3 
f 1/4/4 38/77/5 4/7/6 
f 1/6/7 39/78/8 5/9/9 
f 1/8/10 40/79/11 6/11/12 
f 1/10/13 41/80/14 2/2/15 
f 2/2/16 25/46/17 52/102/18 
f 52/102/19 37/76/20 2/2/21 
f 3/5/22 27/48/23 53/104/24 
f 53/104/25 38/77/26 3/5/27 
f 4/7/28 28/49/29 54/106/30 
f 54/106/31 39/78/32 4/7/33 
f 5/9/34 30/50/35 56/110/36 
f 56/110/37 40/79/38 5/9/39 
f 6/11/40 26/51/41 51/100/42 
f 51/100/43 41/80/44 6/11/45 
f 45/87/46 50/98/47 11/64/48 
f 11/64/49 7/13/50 45/87/51 
f 42/81/52 46/89/53 10/68/54 
f 10/68/55 8/14/56 42/81/57 
f 43/83/58 47/91/59 12/67/60 
f 12/67/61 29/17/62 43/83/63 
f 55/108/64 48/93/65 13/66/66 
f 13/66/67 31/19/68 55/108/69 
f 44/85/70 49/95/71 14/65/72 
f 14/65/73 9/12/74 44/85/75 
f 15/24/76 46/90/77 16/26/78 
f 17/28/79 47/92/80 15/25/81 
f 18/30/82 48/94/83 17/29/84 
f 19/32/85 49/96/86 18/31/87 
f 16/27/88 50/97/89 19/33/90 
f 15/34/91 16/35/92 33/71/93 
f 33/71/94 32/70/95 15/34/96 
f 17/36/97 15/34/98 32/70/99 
f 32/70/100 34/73/101 17/36/102 
f 18/37/103 17/38/104 34/72/105 
f 34/72/106 35/74/107 18/37/108 
f 19/39/109 18/37/110 35/74/111 
f 35/74/112 36/75/113 19/39/114 
f 16/35/115 19/39/116 36/75/117 
f 36/75/118 33/71/119 16/35/120 
f 25/52/121 51/99/122 45/88/123 
f 45/88/124 7/55/125 25/52/126 
f 27/56/127 52/101/128 42/82/129 
f 42/82/130 8/57/131 27/56/132 
f 28/58/133 53/103/134 43/84/135 
f 43/84/136 29/61/137 28/58/138 
f 30/62/139 54/105/140 55/107/141 
f 55/107/142 31/63/143 30/62/144 
f 26/53/145 56/109/146 44/86/147 
f 44/86/148 9/54/149 26/53/150 
f 33/71/151 21/40/152 20/41/153 
f 20/41/154 32/70/155 33/71/156 
f 32/70/157 20/41/158 22/42/159 
f 22/42/160 34/73/161 32/70/162 
f 34/72/163 22/43/164 23/44/165 
f 23/44/166 35/74/167 34/72/168 
f 35/74/169 23/44/170 24/45/171 
f 24/45/172 36/75/173 35/74/174 
f 36/75/175 24/45/176 21/40/177 
f 21/40/178 33/71/179 36/75/180 
f 52/102/181 27/47/182 3/3/183 
f 3/3/184 37/76/185 52/102/186 
f 53/104/187 28/49/188 4/7/189 
f 4/7/190 38/77/191 53/104/192 
f 54/106/193 30/50/194 5/9/195 
f 5/9/196 39/78/197 54/106/198 
f 56/110/199 26/51/200 6/11/201 
f 6/11/202 40/79/203 56/110/204 
f 51/100/205 25/46/206 2/2/207 
f 2/2/208 41/80/209 51/100/210 
f 45/87/211 9/12/212 14/65/213 
f 14/65/214 50/98/215 45/87/216 
f 42/81/217 7/13/218 11/64/219 
f 11/64/220 46/89/221 42/81/222 
f 43/83/223 8/16/224 10/69/225 
f 10/69/226 47/91/227 43/83/228 
f 55/108/229 29/17/230 12/67/231 
f 12/67/232 48/93/233 55/108/234 
f 44/85/235 31/19/236 13/66/237 
f 13/66/238 49/95/239 44/85/240 
f 26/53/241 9/54/242 45/88/243 
f 45/88/244 51/99/245 26/53/246 
f 25/52/247 7/55/248 42/82/249 
f 42/82/250 52/101/251 25/52/252 
f 27/59/253 8/60/254 43/84/255 
f 43/84/256 53/103/257 27/59/258 
f 28/58/259 29/61/260 55/107/261 
f 55/107/262 54/105/263 28/58/264 
f 30/62/265 31/63/266 44/86/267 
f 44/86/268 56/109/269 30/62/270 
f 1/10/271 6/11/272 41/80/273 
f 1/1/274 2/2/275 37/76/276 
f 1/4/277 3/5/278 38/77/279 
f 1/6/280 4/7/281 39/78/282 
f 1/8/283 5/9/284 40/79/285 
f 50/97/286 14/18/287 19/33/288 
f 16/27/289 11/15/290 50/97/291 
f 46/90/292 11/15/293 16/26/294 
f 15/24/295 10/22/296 46/90/297 
f 47/92/298 10/23/299 15/25/300 
f 17/28/301 12/21/302 47/92/303 
f 48/94/304 12/21/305 17/29/306 
f 18/30/307 13/20/308 48/94/309 
f 49/96/310 13/20/311 18/31/312 
f 19/32/313 14/18/314 49/96/315 
# 105 faces

