# 3ds Max Wavefront OBJ Exporter v0.97b - (c)2007 guruware
# File Created: 25.07.2012 12:28:22

#
# object MESH_tree_7
#

v  0.0001 46.2470 -0.0001
v  -6.5511 42.9365 1.4243
v  -0.6698 42.9365 6.6706
v  6.1373 42.9365 2.6982
v  4.4628 42.9365 -5.0031
v  -3.3791 42.9365 -5.7905
v  -11.9398 27.2054 3.0328
v  -0.8052 27.2054 12.2925
v  -6.5741 27.2054 -10.4182
v  -0.4326 19.0667 9.0600
v  -8.7503 19.0667 2.3882
v  8.4829 19.0667 3.2110
v  5.6752 19.0667 -7.0756
v  -4.9755 19.0667 -7.5840
v  -0.1054 12.8730 2.2060
v  -2.1307 12.8730 0.5814
v  2.0656 12.8730 0.7818
v  1.3818 12.8730 -1.7230
v  -1.2115 12.8730 -1.8468
v  -0.1431 -0.0000 2.9957
v  -2.8934 -0.0000 0.7896
v  2.8050 -0.0000 1.0616
v  1.8765 -0.0000 -2.3397
v  -1.6453 -0.0000 -2.5078
v  -10.5993 37.3005 2.5452
v  -5.6962 37.3005 -9.2939
v  -0.8546 37.3005 10.8669
v  10.0710 37.3005 4.1708
v  11.4422 27.2054 4.5643
v  7.0788 37.3005 -8.2894
v  7.8768 27.2054 -9.4718
v  -0.0896 6.4365 1.8751
v  -1.8111 6.4365 0.4942
v  1.7558 6.4365 0.6645
v  1.1746 6.4365 -1.4646
v  -1.0299 6.4365 -1.5698
# 36 vertices

vn 0.0000 1.0000 0.0000
vn -0.6754 0.7235 0.1426
vn -0.0731 0.7235 0.6865
vn 0.0000 1.0000 0.0000
vn -0.0731 0.7235 0.6865
vn 0.6303 0.7235 0.2817
vn 0.0000 1.0000 0.0000
vn 0.6303 0.7235 0.2817
vn 0.4627 0.7235 -0.5124
vn 0.0000 1.0000 0.0000
vn 0.4627 0.7235 -0.5124
vn -0.3443 0.7235 -0.5983
vn 0.0000 1.0000 0.0000
vn -0.3443 0.7235 -0.5983
vn -0.6754 0.7235 0.1426
vn -0.0739 0.3547 0.9320
vn -0.0731 0.7235 0.6865
vn -0.6754 0.7235 0.1426
vn -0.6754 0.7235 0.1426
vn -0.9093 0.3547 0.2177
vn -0.0739 0.3547 0.9320
vn 0.8636 0.3547 0.3583
vn 0.6303 0.7235 0.2817
vn -0.0731 0.7235 0.6865
vn -0.0731 0.7235 0.6865
vn -0.0739 0.3547 0.9320
vn 0.8636 0.3547 0.3583
vn 0.6076 0.3547 -0.7106
vn 0.4627 0.7235 -0.5124
vn 0.6303 0.7235 0.2817
vn 0.6303 0.7235 0.2817
vn 0.8636 0.3547 0.3583
vn 0.6076 0.3547 -0.7106
vn -0.4881 0.3547 -0.7975
vn -0.3443 0.7235 -0.5983
vn 0.4627 0.7235 -0.5124
vn 0.4627 0.7235 -0.5124
vn 0.6076 0.3547 -0.7106
vn -0.4881 0.3547 -0.7975
vn -0.9093 0.3547 0.2177
vn -0.6754 0.7235 0.1426
vn -0.3443 0.7235 -0.5983
vn -0.3443 0.7235 -0.5983
vn -0.4881 0.3547 -0.7975
vn -0.9093 0.3547 0.2177
vn -0.9634 -0.1094 0.2447
vn -0.5305 -0.1094 -0.8406
vn -0.4649 -0.5365 -0.7043
vn -0.4649 -0.5365 -0.7043
vn -0.8135 -0.5365 0.2246
vn -0.9634 -0.1094 0.2447
vn -0.0650 -0.1094 0.9919
vn -0.9634 -0.1094 0.2447
vn -0.8135 -0.5365 0.2246
vn -0.8135 -0.5365 0.2246
vn -0.0378 -0.5365 0.8430
vn -0.0650 -0.1094 0.9919
vn 0.9232 -0.1094 0.3683
vn -0.0650 -0.1094 0.9919
vn -0.0378 -0.5365 0.8430
vn -0.0378 -0.5365 0.8430
vn 0.7901 -0.5365 0.2965
vn 0.9232 -0.1094 0.3683
vn 0.6356 -0.1094 -0.7643
vn 0.9232 -0.1094 0.3683
vn 0.7901 -0.5365 0.2965
vn 0.7901 -0.5365 0.2965
vn 0.5261 -0.5365 -0.6598
vn 0.6356 -0.1094 -0.7643
vn -0.5305 -0.1094 -0.8406
vn 0.6356 -0.1094 -0.7643
vn 0.5261 -0.5365 -0.6598
vn 0.5261 -0.5365 -0.6598
vn -0.4649 -0.5365 -0.7043
vn -0.5305 -0.1094 -0.8406
vn -0.8135 -0.5365 0.2246
vn -0.8367 -0.4977 0.2284
vn -0.0414 -0.4977 0.8663
vn -0.0414 -0.4977 0.8663
vn -0.0378 -0.5365 0.8430
vn -0.8135 -0.5365 0.2246
vn 0.7901 -0.5365 0.2965
vn -0.0378 -0.5365 0.8430
vn -0.0414 -0.4977 0.8663
vn -0.0414 -0.4977 0.8663
vn 0.8112 -0.4977 0.3070
vn 0.7901 -0.5365 0.2965
vn 0.5261 -0.5365 -0.6598
vn 0.7901 -0.5365 0.2965
vn 0.8112 -0.4977 0.3070
vn 0.8112 -0.4977 0.3070
vn 0.5427 -0.4977 -0.6766
vn 0.5261 -0.5365 -0.6598
vn -0.4649 -0.5365 -0.7043
vn 0.5261 -0.5365 -0.6598
vn 0.5427 -0.4977 -0.6766
vn 0.5427 -0.4977 -0.6766
vn -0.4758 -0.4977 -0.7252
vn -0.4649 -0.5365 -0.7043
vn -0.4649 -0.5365 -0.7043
vn -0.4758 -0.4977 -0.7252
vn -0.8367 -0.4977 0.2284
vn -0.8367 -0.4977 0.2284
vn -0.8135 -0.5365 0.2246
vn -0.4649 -0.5365 -0.7043
vn -0.8367 -0.4977 0.2284
vn -0.9628 0.0632 0.2628
vn -0.0476 0.0632 0.9969
vn -0.0476 0.0632 0.9969
vn -0.0414 -0.4977 0.8663
vn -0.8367 -0.4977 0.2284
vn -0.0414 -0.4977 0.8663
vn -0.0476 0.0632 0.9969
vn 0.9334 0.0632 0.3533
vn 0.9334 0.0632 0.3533
vn 0.8112 -0.4977 0.3070
vn -0.0414 -0.4977 0.8663
vn 0.8112 -0.4977 0.3070
vn 0.9334 0.0632 0.3533
vn 0.6244 0.0632 -0.7785
vn 0.6244 0.0632 -0.7785
vn 0.5427 -0.4977 -0.6766
vn 0.8112 -0.4977 0.3070
vn 0.5427 -0.4977 -0.6766
vn 0.6244 0.0632 -0.7785
vn -0.5474 0.0632 -0.8344
vn -0.5474 0.0632 -0.8344
vn -0.4758 -0.4977 -0.7252
vn 0.5427 -0.4977 -0.6766
vn -0.4758 -0.4977 -0.7252
vn -0.5474 0.0632 -0.8344
vn -0.9628 0.0632 0.2628
vn -0.9628 0.0632 0.2628
vn -0.8367 -0.4977 0.2284
vn -0.4758 -0.4977 -0.7252
vn -0.9093 0.3547 0.2177
vn -0.4881 0.3547 -0.7975
vn -0.5305 -0.1094 -0.8406
vn -0.5305 -0.1094 -0.8406
vn -0.9634 -0.1094 0.2447
vn -0.9093 0.3547 0.2177
vn -0.0739 0.3547 0.9320
vn -0.9093 0.3547 0.2177
vn -0.9634 -0.1094 0.2447
vn -0.9634 -0.1094 0.2447
vn -0.0650 -0.1094 0.9919
vn -0.0739 0.3547 0.9320
vn 0.8636 0.3547 0.3583
vn -0.0739 0.3547 0.9320
vn -0.0650 -0.1094 0.9919
vn -0.0650 -0.1094 0.9919
vn 0.9232 -0.1094 0.3683
vn 0.8636 0.3547 0.3583
vn 0.6076 0.3547 -0.7106
vn 0.8636 0.3547 0.3583
vn 0.9232 -0.1094 0.3683
vn 0.9232 -0.1094 0.3683
vn 0.6356 -0.1094 -0.7643
vn 0.6076 0.3547 -0.7106
vn -0.4881 0.3547 -0.7975
vn 0.6076 0.3547 -0.7106
vn 0.6356 -0.1094 -0.7643
vn 0.6356 -0.1094 -0.7643
vn -0.5305 -0.1094 -0.8406
vn -0.4881 0.3547 -0.7975
vn -0.9504 0.1717 0.2594
vn -0.0470 0.1717 0.9840
vn -0.0476 0.0632 0.9969
vn -0.0476 0.0632 0.9969
vn -0.9628 0.0632 0.2628
vn -0.9504 0.1717 0.2594
vn -0.0470 0.1717 0.9840
vn 0.9214 0.1717 0.3487
vn 0.9334 0.0632 0.3533
vn 0.9334 0.0632 0.3533
vn -0.0476 0.0632 0.9969
vn -0.0470 0.1717 0.9840
vn 0.9214 0.1717 0.3487
vn 0.6164 0.1717 -0.7685
vn 0.6244 0.0632 -0.7785
vn 0.6244 0.0632 -0.7785
vn 0.9334 0.0632 0.3533
vn 0.9214 0.1717 0.3487
vn 0.6164 0.1717 -0.7685
vn -0.5404 0.1717 -0.8237
vn -0.5474 0.0632 -0.8344
vn -0.5474 0.0632 -0.8344
vn 0.6244 0.0632 -0.7785
vn 0.6164 0.1717 -0.7685
vn -0.5404 0.1717 -0.8237
vn -0.9504 0.1717 0.2594
vn -0.9628 0.0632 0.2628
vn -0.9628 0.0632 0.2628
vn -0.5474 0.0632 -0.8344
vn -0.5404 0.1717 -0.8237
# 195 vertex normals

vt 0.9000 0.9961 0.0000
vt 0.8008 0.8613 0.0000
vt 1.0000 0.8613 0.0000
vt 0.1003 0.9961 0.0000
vt 0.0000 0.8613 0.0000
vt 0.2997 0.9961 0.0000
vt 0.2012 0.8613 0.0000
vt 0.5002 0.9961 0.0000
vt 0.4004 0.8613 0.0000
vt 0.7001 0.9961 0.0000
vt 0.5996 0.8613 0.0000
vt 0.5996 0.7578 0.0000
vt 0.8008 0.7578 0.0000
vt 1.0000 0.7578 0.0000
vt 0.8000 0.5848 0.0000
vt 0.0000 0.7578 0.0000
vt 0.2012 0.7578 0.0000
vt 0.6001 0.5848 0.0000
vt 0.4004 0.7578 0.0000
vt 0.4002 0.5848 0.0000
vt 0.2003 0.5848 0.0000
vt 0.9999 0.5848 0.0000
vt 0.0004 0.5848 0.0000
vt 0.9258 0.5020 0.0000
vt 0.0742 0.5020 0.0000
vt 0.8750 0.5020 0.0000
vt 0.7246 0.5020 0.0000
vt 0.1250 0.5020 0.0000
vt 0.2754 0.5020 0.0000
vt 0.3262 0.5020 0.0000
vt 0.4746 0.5020 0.0000
vt 0.5254 0.5020 0.0000
vt 0.6738 0.5020 0.0000
vt 0.1465 0.4980 0.0000
vt 0.1094 0.4980 0.0000
vt 0.1836 0.4980 0.0000
vt 0.0352 0.4980 0.0000
vt 0.0020 0.4980 0.0000
vt 0.0742 0.4980 0.0000
vt 0.1094 0.3047 0.0000
vt 0.1484 0.3047 0.0000
vt 0.1836 0.3047 0.0000
vt 0.0020 0.3047 0.0000
vt 0.0371 0.3047 0.0000
vt 0.0742 0.3047 0.0000
vt 0.8008 0.7461 0.0000
vt 1.0000 0.7461 0.0000
vt 0.0000 0.7461 0.0000
vt 0.2012 0.7461 0.0000
vt 0.4004 0.7461 0.0000
vt 0.5996 0.7461 0.0000
vt 0.8008 0.7461 0.0000
vt 0.5996 0.7461 0.0000
vt 0.5996 0.5684 0.0000
vt 0.8008 0.5684 0.0000
vt 1.0000 0.7461 0.0000
vt 1.0000 0.5684 0.0000
vt 0.2012 0.7461 0.0000
vt 0.0000 0.7461 0.0000
vt 0.0000 0.5684 0.0000
vt 0.2012 0.5684 0.0000
vt 0.4004 0.7461 0.0000
vt 0.4004 0.5684 0.0000
vt 0.8008 0.5840 0.0000
vt 0.5996 0.5840 0.0000
vt 0.4004 0.5840 0.0000
vt 0.2012 0.5840 0.0000
vt 1.0000 0.5840 0.0000
vt 0.0000 0.5840 0.0000
vt 0.1475 0.4014 0.0000
vt 0.1094 0.4014 0.0000
vt 0.0020 0.4014 0.0000
vt 0.1836 0.4014 0.0000
vt 0.0361 0.4014 0.0000
vt 0.0742 0.4014 0.0000
# 75 texture coords

g MESH_tree_7
s 1
f 1/1/1 2/2/2 3/3/3 
f 1/4/4 3/5/5 4/7/6 
f 1/6/7 4/7/8 5/9/9 
f 1/8/10 5/9/11 6/11/12 
f 1/10/13 6/11/14 2/2/15 
f 27/47/16 3/3/17 2/2/18 
f 2/2/19 25/46/20 27/47/21 
f 28/49/22 4/7/23 3/5/24 
f 3/5/25 27/48/26 28/49/27 
f 30/50/28 5/9/29 4/7/30 
f 4/7/31 28/49/32 30/50/33 
f 26/51/34 6/11/35 5/9/36 
f 5/9/37 30/50/38 26/51/39 
f 25/46/40 2/2/41 6/11/42 
f 6/11/43 26/51/44 25/46/45 
f 7/13/46 9/12/47 14/65/48 
f 14/65/49 11/64/50 7/13/51 
f 8/14/52 7/13/53 11/64/54 
f 11/64/55 10/68/56 8/14/57 
f 29/17/58 8/16/59 10/69/60 
f 10/69/61 12/67/62 29/17/63 
f 31/19/64 29/17/65 12/67/66 
f 12/67/67 13/66/68 31/19/69 
f 9/12/70 31/19/71 13/66/72 
f 13/66/73 14/65/74 9/12/75 
f 11/15/76 16/26/77 15/24/78 
f 15/24/79 10/22/80 11/15/81 
f 12/21/82 10/23/83 15/25/84 
f 15/25/85 17/28/86 12/21/87 
f 13/20/88 12/21/89 17/29/90 
f 17/29/91 18/30/92 13/20/93 
f 14/18/94 13/20/95 18/31/96 
f 18/31/97 19/32/98 14/18/99 
f 14/18/100 19/33/101 16/27/102 
f 16/27/103 11/15/104 14/18/105 
f 16/35/106 33/71/107 32/70/108 
f 32/70/109 15/34/110 16/35/111 
f 15/34/112 32/70/113 34/73/114 
f 34/73/115 17/36/116 15/34/117 
f 17/38/118 34/72/119 35/74/120 
f 35/74/121 18/37/122 17/38/123 
f 18/37/124 35/74/125 36/75/126 
f 36/75/127 19/39/128 18/37/129 
f 19/39/130 36/75/131 33/71/132 
f 33/71/133 16/35/134 19/39/135 
f 25/52/136 26/53/137 9/54/138 
f 9/54/139 7/55/140 25/52/141 
f 27/56/142 25/52/143 7/55/144 
f 7/55/145 8/57/146 27/56/147 
f 28/58/148 27/59/149 8/60/150 
f 8/60/151 29/61/152 28/58/153 
f 30/62/154 28/58/155 29/61/156 
f 29/61/157 31/63/158 30/62/159 
f 26/53/160 30/62/161 31/63/162 
f 31/63/163 9/54/164 26/53/165 
f 21/40/166 20/41/167 32/70/168 
f 32/70/169 33/71/170 21/40/171 
f 20/41/172 22/42/173 34/73/174 
f 34/73/175 32/70/176 20/41/177 
f 22/43/178 23/44/179 35/74/180 
f 35/74/181 34/72/182 22/43/183 
f 23/44/184 24/45/185 36/75/186 
f 36/75/187 35/74/188 23/44/189 
f 24/45/190 21/40/191 33/71/192 
f 33/71/193 36/75/194 24/45/195 
# 65 faces

