# 3ds Max Wavefront OBJ Exporter v0.97b - (c)2007 guruware
# File Created: 25.07.2012 12:28:41

#
# object MESH_tree_9
#

v  -2.1739 36.2726 -0.0000
v  -8.8751 30.7633 1.5416
v  -2.5213 31.1519 7.2199
v  4.8325 31.6017 2.9204
v  3.0235 31.4911 -5.4151
v  -5.4483 30.9729 -6.2673
v  -11.4866 23.5814 2.4652
v  -2.0660 24.1576 10.5251
v  8.4962 24.8036 4.0396
v  5.6035 24.6267 -8.0286
v  -6.7465 23.8713 -9.0015
v  -1.3008 17.3028 12.5062
v  -12.7609 16.6018 3.2967
v  10.9829 18.0541 4.4324
v  7.1145 17.8175 -9.7669
v  -7.5600 16.9199 -10.4687
v  -0.5643 13.3745 1.8885
v  -2.2950 13.2687 0.4978
v  1.2906 13.4880 0.6693
v  0.7064 13.4523 -1.4749
v  -1.5096 13.3167 -1.5809
v  -0.1235 0.0000 2.5870
v  -2.4986 0.0000 0.6819
v  2.4222 0.0000 0.9168
v  1.6205 0.0000 -2.0204
v  -1.4208 0.0000 -2.1656
v  -0.3056 6.6883 1.4334
v  -1.6205 6.6544 0.3778
v  1.1039 6.7246 0.5080
v  0.6600 6.7132 -1.1195
v  -1.0238 6.6697 -1.2000
# 31 vertices

vn -0.0611 0.9978 0.0253
vn -0.6982 0.5393 0.4708
vn 0.1912 0.5892 0.7851
vn -0.0611 0.9978 0.0253
vn 0.1912 0.5892 0.7851
vn 0.7615 0.6472 0.0366
vn -0.0611 0.9978 0.0253
vn 0.7615 0.6472 0.0366
vn 0.2281 0.6333 -0.7395
vn -0.0611 0.9978 0.0253
vn 0.2281 0.6333 -0.7395
vn -0.6744 0.5667 -0.4734
vn -0.0611 0.9978 0.0253
vn -0.6744 0.5667 -0.4734
vn -0.6982 0.5393 0.4708
vn 0.2639 0.3418 0.9020
vn 0.1912 0.5892 0.7851
vn -0.6982 0.5393 0.4708
vn -0.6982 0.5393 0.4708
vn -0.7827 0.2783 0.5566
vn 0.2639 0.3418 0.9020
vn 0.9106 0.4131 0.0148
vn 0.7615 0.6472 0.0366
vn 0.1912 0.5892 0.7851
vn 0.1912 0.5892 0.7851
vn 0.2639 0.3418 0.9020
vn 0.9106 0.4131 0.0148
vn 0.2708 0.3943 -0.8782
vn 0.2281 0.6333 -0.7395
vn 0.7615 0.6472 0.0366
vn 0.7615 0.6472 0.0366
vn 0.9106 0.4131 0.0148
vn 0.2708 0.3943 -0.8782
vn -0.7767 0.3111 -0.5477
vn -0.6744 0.5667 -0.4734
vn 0.2281 0.6333 -0.7395
vn 0.2281 0.6333 -0.7395
vn 0.2708 0.3943 -0.8782
vn -0.7767 0.3111 -0.5477
vn -0.7827 0.2783 0.5566
vn -0.6982 0.5393 0.4708
vn -0.6744 0.5667 -0.4734
vn -0.6744 0.5667 -0.4734
vn -0.7767 0.3111 -0.5477
vn -0.7827 0.2783 0.5566
vn -0.7827 0.2783 0.5566
vn -0.7767 0.3111 -0.5477
vn -0.7433 -0.4094 -0.5290
vn -0.7433 -0.4094 -0.5290
vn -0.7045 -0.4353 0.5605
vn -0.7827 0.2783 0.5566
vn 0.2639 0.3418 0.9020
vn -0.7827 0.2783 0.5566
vn -0.7045 -0.4353 0.5605
vn -0.7045 -0.4353 0.5605
vn 0.3419 -0.3773 0.8607
vn 0.2639 0.3418 0.9020
vn 0.9106 0.4131 0.0148
vn 0.2639 0.3418 0.9020
vn 0.3419 -0.3773 0.8607
vn 0.3419 -0.3773 0.8607
vn 0.9479 -0.3159 -0.0419
vn 0.9106 0.4131 0.0148
vn 0.2708 0.3943 -0.8782
vn 0.9106 0.4131 0.0148
vn 0.9479 -0.3159 -0.0419
vn 0.9479 -0.3159 -0.0419
vn 0.2784 -0.3357 -0.8999
vn 0.2708 0.3943 -0.8782
vn -0.7767 0.3111 -0.5477
vn 0.2708 0.3943 -0.8782
vn 0.2784 -0.3357 -0.8999
vn 0.2784 -0.3357 -0.8999
vn -0.7433 -0.4094 -0.5290
vn -0.7767 0.3111 -0.5477
vn -0.7045 -0.4353 0.5605
vn -0.5128 -0.7525 0.4134
vn 0.2790 -0.7201 0.6353
vn 0.2790 -0.7201 0.6353
vn 0.3419 -0.3773 0.8607
vn -0.7045 -0.4353 0.5605
vn 0.9479 -0.3159 -0.0419
vn 0.3419 -0.3773 0.8607
vn 0.2790 -0.7201 0.6353
vn 0.2790 -0.7201 0.6353
vn 0.7260 -0.6865 -0.0390
vn 0.9479 -0.3159 -0.0419
vn 0.2784 -0.3357 -0.8999
vn 0.9479 -0.3159 -0.0419
vn 0.7260 -0.6865 -0.0390
vn 0.7260 -0.6865 -0.0390
vn 0.2355 -0.6971 -0.6772
vn 0.2784 -0.3357 -0.8999
vn -0.7433 -0.4094 -0.5290
vn 0.2784 -0.3357 -0.8999
vn 0.2355 -0.6971 -0.6772
vn 0.2355 -0.6971 -0.6772
vn -0.5344 -0.7378 -0.4125
vn -0.7433 -0.4094 -0.5290
vn -0.7433 -0.4094 -0.5290
vn -0.5344 -0.7378 -0.4125
vn -0.5128 -0.7525 0.4134
vn -0.5128 -0.7525 0.4134
vn -0.7045 -0.4353 0.5605
vn -0.7433 -0.4094 -0.5290
vn -0.5128 -0.7525 0.4134
vn -0.7906 0.0199 0.6120
vn 0.3365 0.0524 0.9402
vn 0.3365 0.0524 0.9402
vn 0.2790 -0.7201 0.6353
vn -0.5128 -0.7525 0.4134
vn 0.2790 -0.7201 0.6353
vn 0.3365 0.0524 0.9402
vn 0.9958 0.0868 -0.0303
vn 0.9958 0.0868 -0.0303
vn 0.7260 -0.6865 -0.0390
vn 0.2790 -0.7201 0.6353
vn 0.7260 -0.6865 -0.0390
vn 0.9958 0.0868 -0.0303
vn 0.2778 0.0761 -0.9576
vn 0.2778 0.0761 -0.9576
vn 0.2355 -0.6971 -0.6772
vn 0.7260 -0.6865 -0.0390
vn 0.2355 -0.6971 -0.6772
vn 0.2778 0.0761 -0.9576
vn -0.8267 0.0349 -0.5615
vn -0.8267 0.0349 -0.5615
vn -0.5344 -0.7378 -0.4125
vn 0.2355 -0.6971 -0.6772
vn -0.5344 -0.7378 -0.4125
vn -0.8267 0.0349 -0.5615
vn -0.7906 0.0199 0.6120
vn -0.7906 0.0199 0.6120
vn -0.5128 -0.7525 0.4134
vn -0.5344 -0.7378 -0.4125
vn -0.7811 0.1375 0.6090
vn 0.3442 0.1685 0.9237
vn 0.3365 0.0524 0.9402
vn 0.3365 0.0524 0.9402
vn -0.7906 0.0199 0.6120
vn -0.7811 0.1375 0.6090
vn 0.3442 0.1685 0.9237
vn 0.9790 0.2009 -0.0343
vn 0.9958 0.0868 -0.0303
vn 0.9958 0.0868 -0.0303
vn 0.3365 0.0524 0.9402
vn 0.3442 0.1685 0.9237
vn 0.9790 0.2009 -0.0343
vn 0.2831 0.1909 -0.9399
vn 0.2778 0.0761 -0.9576
vn 0.2778 0.0761 -0.9576
vn 0.9958 0.0868 -0.0303
vn 0.9790 0.2009 -0.0343
vn 0.2778 0.0761 -0.9576
vn 0.2831 0.1909 -0.9399
vn -0.8116 0.1517 -0.5641
vn -0.8116 0.1517 -0.5641
vn -0.8267 0.0349 -0.5615
vn 0.2778 0.0761 -0.9576
vn -0.8267 0.0349 -0.5615
vn -0.8116 0.1517 -0.5641
vn -0.7811 0.1375 0.6090
vn -0.7811 0.1375 0.6090
vn -0.7906 0.0199 0.6120
vn -0.8267 0.0349 -0.5615
# 165 vertex normals

vt 0.9000 0.9961 0.0000
vt 0.8000 0.8621 0.0000
vt 0.9999 0.8621 0.0000
vt 0.1003 0.9961 0.0000
vt 0.0004 0.8621 0.0000
vt 0.2997 0.9961 0.0000
vt 0.2003 0.8621 0.0000
vt 0.5002 0.9961 0.0000
vt 0.4002 0.8621 0.0000
vt 0.7001 0.9961 0.0000
vt 0.6001 0.8621 0.0000
vt 0.6001 0.7234 0.0000
vt 0.8000 0.7234 0.0000
vt 0.9999 0.7234 0.0000
vt 0.8000 0.5848 0.0000
vt 0.0004 0.7234 0.0000
vt 0.2003 0.7234 0.0000
vt 0.6001 0.5848 0.0000
vt 0.4002 0.7234 0.0000
vt 0.4002 0.5848 0.0000
vt 0.2003 0.5848 0.0000
vt 0.9999 0.5848 0.0000
vt 0.0004 0.5848 0.0000
vt 0.9258 0.5020 0.0000
vt 0.0742 0.5020 0.0000
vt 0.8750 0.5020 0.0000
vt 0.7246 0.5020 0.0000
vt 0.1250 0.5020 0.0000
vt 0.2754 0.5020 0.0000
vt 0.3262 0.5020 0.0000
vt 0.4746 0.5020 0.0000
vt 0.5254 0.5020 0.0000
vt 0.6738 0.5020 0.0000
vt 0.1465 0.4980 0.0000
vt 0.1094 0.4980 0.0000
vt 0.1836 0.4980 0.0000
vt 0.0352 0.4980 0.0000
vt 0.0020 0.4980 0.0000
vt 0.0742 0.4980 0.0000
vt 0.1094 0.3047 0.0000
vt 0.1484 0.3047 0.0000
vt 0.1836 0.3047 0.0000
vt 0.0020 0.3047 0.0000
vt 0.0371 0.3047 0.0000
vt 0.0742 0.3047 0.0000
vt 0.1475 0.4014 0.0000
vt 0.1094 0.4014 0.0000
vt 0.0020 0.4014 0.0000
vt 0.1836 0.4014 0.0000
vt 0.0361 0.4014 0.0000
vt 0.0742 0.4014 0.0000
# 51 texture coords

g MESH_tree_9
s 1
f 1/1/1 2/2/2 3/3/3 
f 1/4/4 3/5/5 4/7/6 
f 1/6/7 4/7/8 5/9/9 
f 1/8/10 5/9/11 6/11/12 
f 1/10/13 6/11/14 2/2/15 
f 8/14/16 3/3/17 2/2/18 
f 2/2/19 7/13/20 8/14/21 
f 9/17/22 4/7/23 3/5/24 
f 3/5/25 8/16/26 9/17/27 
f 10/19/28 5/9/29 4/7/30 
f 4/7/31 9/17/32 10/19/33 
f 11/12/34 6/11/35 5/9/36 
f 5/9/37 10/19/38 11/12/39 
f 7/13/40 2/2/41 6/11/42 
f 6/11/43 11/12/44 7/13/45 
f 7/13/46 11/12/47 16/18/48 
f 16/18/49 13/15/50 7/13/51 
f 8/14/52 7/13/53 13/15/54 
f 13/15/55 12/22/56 8/14/57 
f 9/17/58 8/16/59 12/23/60 
f 12/23/61 14/21/62 9/17/63 
f 10/19/64 9/17/65 14/21/66 
f 14/21/67 15/20/68 10/19/69 
f 11/12/70 10/19/71 15/20/72 
f 15/20/73 16/18/74 11/12/75 
f 13/15/76 18/26/77 17/24/78 
f 17/24/79 12/22/80 13/15/81 
f 14/21/82 12/23/83 17/25/84 
f 17/25/85 19/28/86 14/21/87 
f 15/20/88 14/21/89 19/29/90 
f 19/29/91 20/30/92 15/20/93 
f 16/18/94 15/20/95 20/31/96 
f 20/31/97 21/32/98 16/18/99 
f 16/18/100 21/33/101 18/27/102 
f 18/27/103 13/15/104 16/18/105 
f 18/35/106 28/47/107 27/46/108 
f 27/46/109 17/34/110 18/35/111 
f 17/34/112 27/46/113 29/49/114 
f 29/49/115 19/36/116 17/34/117 
f 19/38/118 29/48/119 30/50/120 
f 30/50/121 20/37/122 19/38/123 
f 20/37/124 30/50/125 31/51/126 
f 31/51/127 21/39/128 20/37/129 
f 21/39/130 31/51/131 28/47/132 
f 28/47/133 18/35/134 21/39/135 
f 23/40/136 22/41/137 27/46/138 
f 27/46/139 28/47/140 23/40/141 
f 22/41/142 24/42/143 29/49/144 
f 29/49/145 27/46/146 22/41/147 
f 24/43/148 25/44/149 30/50/150 
f 30/50/151 29/48/152 24/43/153 
f 30/50/154 25/44/155 26/45/156 
f 26/45/157 31/51/158 30/50/159 
f 31/51/160 26/45/161 23/40/162 
f 23/40/163 28/47/164 31/51/165 
# 55 faces

